solid OpenSCAD_Model
  facet normal -0.980738 -0.195327 0
    outer loop
      vertex 0 5 -12.5
      vertex 0.381 3.087 -12.5
      vertex 0 5 12.5
    endloop
  endfacet
  facet normal -0.980738 -0.195327 0
    outer loop
      vertex 0 5 12.5
      vertex 0.381 3.087 -12.5
      vertex 0.381 3.087 12.5
    endloop
  endfacet
  facet normal 0 0 -1
    outer loop
      vertex 0 5 -12.5
      vertex 0 75 -12.5
      vertex 0.381 3.087 -12.5
    endloop
  endfacet
  facet normal 0 0 -1
    outer loop
      vertex 0.381 3.087 -12.5
      vertex 0 75 -12.5
      vertex 0.381 76.913 -12.5
    endloop
  endfacet
  facet normal 0 0 -1
    outer loop
      vertex 0.381 3.087 -12.5
      vertex 0.381 76.913 -12.5
      vertex 1.464 78.536 -12.5
    endloop
  endfacet
  facet normal 0 0 -1
    outer loop
      vertex 0.381 3.087 -12.5
      vertex 1.464 78.536 -12.5
      vertex 3.087 79.619 -12.5
    endloop
  endfacet
  facet normal 0 0 -1
    outer loop
      vertex 0.381 3.087 -12.5
      vertex 3.087 79.619 -12.5
      vertex 5 80 -12.5
    endloop
  endfacet
  facet normal 0 0 -1
    outer loop
      vertex 20 71 -12.5
      vertex 5 80 -12.5
      vertex 43.5 80 -12.5
    endloop
  endfacet
  facet normal 0 0 -1
    outer loop
      vertex 15 62 -12.5
      vertex 5 80 -12.5
      vertex 20 71 -12.5
    endloop
  endfacet
  facet normal 0 0 -1
    outer loop
      vertex 15 62 -12.5
      vertex 20 71 -12.5
      vertex 20 62 -12.5
    endloop
  endfacet
  facet normal 0 0 -1
    outer loop
      vertex 0.381 3.087 -12.5
      vertex 5 80 -12.5
      vertex 15 62 -12.5
    endloop
  endfacet
  facet normal 0 0 -1
    outer loop
      vertex 15 12 -12.5
      vertex 0.381 3.087 -12.5
      vertex 15 62 -12.5
    endloop
  endfacet
  facet normal 0 0 -1
    outer loop
      vertex 0.381 3.087 -12.5
      vertex 15 12 -12.5
      vertex 55 12 -12.5
    endloop
  endfacet
  facet normal 0 0 -1
    outer loop
      vertex 0.381 3.087 -12.5
      vertex 55 12 -12.5
      vertex 55 5 -12.5
    endloop
  endfacet
  facet normal 0 0 -1
    outer loop
      vertex 0.381 3.087 -12.5
      vertex 55 5 -12.5
      vertex 54.619 3.087 -12.5
    endloop
  endfacet
  facet normal 0 0 -1
    outer loop
      vertex 0.381 3.087 -12.5
      vertex 54.619 3.087 -12.5
      vertex 53.536 1.464 -12.5
    endloop
  endfacet
  facet normal 0 0 -1
    outer loop
      vertex 0.381 3.087 -12.5
      vertex 53.536 1.464 -12.5
      vertex 51.913 0.381 -12.5
    endloop
  endfacet
  facet normal 0 0 -1
    outer loop
      vertex 0.381 3.087 -12.5
      vertex 51.913 0.381 -12.5
      vertex 50 0 -12.5
    endloop
  endfacet
  facet normal 0 0 -1
    outer loop
      vertex 0.381 3.087 -12.5
      vertex 50 0 -12.5
      vertex 5 0 -12.5
    endloop
  endfacet
  facet normal 0 0 -1
    outer loop
      vertex 0.381 3.087 -12.5
      vertex 5 0 -12.5
      vertex 3.087 0.381 -12.5
    endloop
  endfacet
  facet normal 0 0 -1
    outer loop
      vertex 0.381 3.087 -12.5
      vertex 3.087 0.381 -12.5
      vertex 1.464 1.464 -12.5
    endloop
  endfacet
  facet normal 0 0 -1
    outer loop
      vertex 20 71 -12.5
      vertex 43.5 80 -12.5
      vertex 43.5 71 -12.5
    endloop
  endfacet
  facet normal -1 0 0
    outer loop
      vertex 0 5 -12.5
      vertex 0 5 12.5
      vertex 0 75 -12.5
    endloop
  endfacet
  facet normal -1 0 0
    outer loop
      vertex 0 75 -12.5
      vertex 0 5 12.5
      vertex 0 75 12.5
    endloop
  endfacet
  facet normal 0 0 1
    outer loop
      vertex 0 75 12.5
      vertex 0 5 12.5
      vertex 0.381 3.087 12.5
    endloop
  endfacet
  facet normal 0 0 1
    outer loop
      vertex 3.087 0.381 12.5
      vertex 0 75 12.5
      vertex 1.464 1.464 12.5
    endloop
  endfacet
  facet normal 0 0 1
    outer loop
      vertex 1.464 1.464 12.5
      vertex 0 75 12.5
      vertex 0.381 3.087 12.5
    endloop
  endfacet
  facet normal 0 0 1
    outer loop
      vertex 5 0 12.5
      vertex 0 75 12.5
      vertex 3.087 0.381 12.5
    endloop
  endfacet
  facet normal 0 0 1
    outer loop
      vertex 15 12 12.5
      vertex 0 75 12.5
      vertex 5 0 12.5
    endloop
  endfacet
  facet normal 0 0 1
    outer loop
      vertex 15 12 12.5
      vertex 15 62 12.5
      vertex 0 75 12.5
    endloop
  endfacet
  facet normal 0 0 1
    outer loop
      vertex 50 0 12.5
      vertex 15 12 12.5
      vertex 5 0 12.5
    endloop
  endfacet
  facet normal 0 0 1
    outer loop
      vertex 20 62 12.5
      vertex 0 75 12.5
      vertex 15 62 12.5
    endloop
  endfacet
  facet normal 0 0 1
    outer loop
      vertex 20 71 12.5
      vertex 0 75 12.5
      vertex 20 62 12.5
    endloop
  endfacet
  facet normal 0 0 1
    outer loop
      vertex 42.5 71 12.5
      vertex 0 75 12.5
      vertex 20 71 12.5
    endloop
  endfacet
  facet normal 0 0 1
    outer loop
      vertex 42.5 80 12.5
      vertex 0 75 12.5
      vertex 42.5 71 12.5
    endloop
  endfacet
  facet normal 0 0 1
    outer loop
      vertex 5 80 12.5
      vertex 0 75 12.5
      vertex 42.5 80 12.5
    endloop
  endfacet
  facet normal 0 0 1
    outer loop
      vertex 3.087 79.619 12.5
      vertex 0 75 12.5
      vertex 5 80 12.5
    endloop
  endfacet
  facet normal 0 0 1
    outer loop
      vertex 1.464 78.536 12.5
      vertex 0 75 12.5
      vertex 3.087 79.619 12.5
    endloop
  endfacet
  facet normal 0 0 1
    outer loop
      vertex 0.381 76.913 12.5
      vertex 0 75 12.5
      vertex 1.464 78.536 12.5
    endloop
  endfacet
  facet normal 0 0 1
    outer loop
      vertex 55 12 12.5
      vertex 54.619 3.087 12.5
      vertex 55 5 12.5
    endloop
  endfacet
  facet normal 0 0 1
    outer loop
      vertex 55 12 12.5
      vertex 53.536 1.464 12.5
      vertex 54.619 3.087 12.5
    endloop
  endfacet
  facet normal 0 0 1
    outer loop
      vertex 55 12 12.5
      vertex 51.913 0.381 12.5
      vertex 53.536 1.464 12.5
    endloop
  endfacet
  facet normal 0 0 1
    outer loop
      vertex 55 12 12.5
      vertex 50 0 12.5
      vertex 51.913 0.381 12.5
    endloop
  endfacet
  facet normal 0 0 1
    outer loop
      vertex 55 12 12.5
      vertex 15 12 12.5
      vertex 50 0 12.5
    endloop
  endfacet
  facet normal -0.831814 -0.555055 0
    outer loop
      vertex 0.381 3.087 -12.5
      vertex 1.464 1.464 -12.5
      vertex 0.381 3.087 12.5
    endloop
  endfacet
  facet normal -0.831814 -0.555055 0
    outer loop
      vertex 0.381 3.087 12.5
      vertex 1.464 1.464 -12.5
      vertex 1.464 1.464 12.5
    endloop
  endfacet
  facet normal -0.555055 -0.831814 0
    outer loop
      vertex 1.464 1.464 12.5
      vertex 1.464 1.464 -12.5
      vertex 3.087 0.381 -12.5
    endloop
  endfacet
  facet normal -0.555055 -0.831814 0
    outer loop
      vertex 3.087 0.381 12.5
      vertex 1.464 1.464 12.5
      vertex 3.087 0.381 -12.5
    endloop
  endfacet
  facet normal -0.195327 -0.980738 0
    outer loop
      vertex 3.087 0.381 12.5
      vertex 3.087 0.381 -12.5
      vertex 5 0 -12.5
    endloop
  endfacet
  facet normal -0.195327 -0.980738 0
    outer loop
      vertex 5 0 12.5
      vertex 3.087 0.381 12.5
      vertex 5 0 -12.5
    endloop
  endfacet
  facet normal 0 -1 0
    outer loop
      vertex 5 0 12.5
      vertex 5 0 -12.5
      vertex 50 0 -12.5
    endloop
  endfacet
  facet normal 0 -1 0
    outer loop
      vertex 37.872 0 -2.456
      vertex 5 0 12.5
      vertex 50 0 -12.5
    endloop
  endfacet
  facet normal 0 -1 0
    outer loop
      vertex 36.882 0 0.916
      vertex 5 0 12.5
      vertex 36.882 0 -0.916
    endloop
  endfacet
  facet normal 0 -1 0
    outer loop
      vertex 37.872 0 2.456
      vertex 5 0 12.5
      vertex 36.882 0 0.916
    endloop
  endfacet
  facet normal 0 -1 0
    outer loop
      vertex 39.537 0 3.217
      vertex 41.35 0 2.956
      vertex 50 0 12.5
    endloop
  endfacet
  facet normal 0 -1 0
    outer loop
      vertex 50 0 12.5
      vertex 5 0 12.5
      vertex 37.872 0 2.456
    endloop
  endfacet
  facet normal 0 -1 0
    outer loop
      vertex 43.25 0 3.33067e-15
      vertex 42.734 0 -1.757
      vertex 50 0 -12.5
    endloop
  endfacet
  facet normal 0 -1 0
    outer loop
      vertex 39.537 0 -3.217
      vertex 37.872 0 -2.456
      vertex 50 0 -12.5
    endloop
  endfacet
  facet normal 0 -1 0
    outer loop
      vertex 50 0 12.5
      vertex 42.734 0 1.757
      vertex 50 0 -12.5
    endloop
  endfacet
  facet normal 0 -1 0
    outer loop
      vertex 50 0 12.5
      vertex 41.35 0 2.956
      vertex 42.734 0 1.757
    endloop
  endfacet
  facet normal 0 -1 0
    outer loop
      vertex 42.734 0 1.757
      vertex 43.25 0 3.33067e-15
      vertex 50 0 -12.5
    endloop
  endfacet
  facet normal 0 -1 0
    outer loop
      vertex 42.734 0 -1.757
      vertex 41.35 0 -2.956
      vertex 50 0 -12.5
    endloop
  endfacet
  facet normal 0 -1 0
    outer loop
      vertex 41.35 0 -2.956
      vertex 39.537 0 -3.217
      vertex 50 0 -12.5
    endloop
  endfacet
  facet normal 0 -1 0
    outer loop
      vertex 36.882 0 -0.916
      vertex 5 0 12.5
      vertex 37.872 0 -2.456
    endloop
  endfacet
  facet normal 0 -1 0
    outer loop
      vertex 37.872 0 2.456
      vertex 39.537 0 3.217
      vertex 50 0 12.5
    endloop
  endfacet
  facet normal 0.195327 -0.980738 0
    outer loop
      vertex 50 0 12.5
      vertex 50 0 -12.5
      vertex 51.913 0.381 -12.5
    endloop
  endfacet
  facet normal 0.195327 -0.980738 0
    outer loop
      vertex 51.913 0.381 12.5
      vertex 50 0 12.5
      vertex 51.913 0.381 -12.5
    endloop
  endfacet
  facet normal 0.555055 -0.831814 0
    outer loop
      vertex 51.913 0.381 12.5
      vertex 51.913 0.381 -12.5
      vertex 53.536 1.464 -12.5
    endloop
  endfacet
  facet normal 0.555055 -0.831814 0
    outer loop
      vertex 53.536 1.464 12.5
      vertex 51.913 0.381 12.5
      vertex 53.536 1.464 -12.5
    endloop
  endfacet
  facet normal 0.831814 -0.555055 0
    outer loop
      vertex 53.536 1.464 12.5
      vertex 53.536 1.464 -12.5
      vertex 54.619 3.087 -12.5
    endloop
  endfacet
  facet normal 0.831814 -0.555055 0
    outer loop
      vertex 54.619 3.087 12.5
      vertex 53.536 1.464 12.5
      vertex 54.619 3.087 -12.5
    endloop
  endfacet
  facet normal 0.980738 -0.195327 0
    outer loop
      vertex 54.619 3.087 12.5
      vertex 54.619 3.087 -12.5
      vertex 55 5 -12.5
    endloop
  endfacet
  facet normal 0.980738 -0.195327 0
    outer loop
      vertex 55 5 12.5
      vertex 54.619 3.087 12.5
      vertex 55 5 -12.5
    endloop
  endfacet
  facet normal 1 0 0
    outer loop
      vertex 55 5 12.5
      vertex 55 5 -12.5
      vertex 55 12 -12.5
    endloop
  endfacet
  facet normal 1 0 0
    outer loop
      vertex 55 12 12.5
      vertex 55 5 12.5
      vertex 55 12 -12.5
    endloop
  endfacet
  facet normal 0 1 0
    outer loop
      vertex 45.5 12 -3.175
      vertex 55 12 -12.5
      vertex 40 12 -6.351
    endloop
  endfacet
  facet normal 0 1 0
    outer loop
      vertex 40 12 6.351
      vertex 15 12 12.5
      vertex 55 12 12.5
    endloop
  endfacet
  facet normal 0 1 0
    outer loop
      vertex 15 12 -12.5
      vertex 15 12 12.5
      vertex 34.5 12 -3.175
    endloop
  endfacet
  facet normal 0 1 0
    outer loop
      vertex 15 12 -12.5
      vertex 34.5 12 -3.175
      vertex 40 12 -6.351
    endloop
  endfacet
  facet normal 0 1 0
    outer loop
      vertex 15 12 -12.5
      vertex 40 12 -6.351
      vertex 55 12 -12.5
    endloop
  endfacet
  facet normal 0 1 0
    outer loop
      vertex 40 12 6.351
      vertex 55 12 12.5
      vertex 45.5 12 3.175
    endloop
  endfacet
  facet normal 0 1 0
    outer loop
      vertex 55 12 -12.5
      vertex 45.5 12 -3.175
      vertex 55 12 12.5
    endloop
  endfacet
  facet normal 0 1 0
    outer loop
      vertex 45.5 12 -3.175
      vertex 45.5 12 3.175
      vertex 55 12 12.5
    endloop
  endfacet
  facet normal 0 1 0
    outer loop
      vertex 34.5 12 3.175
      vertex 15 12 12.5
      vertex 40 12 6.351
    endloop
  endfacet
  facet normal 0 1 0
    outer loop
      vertex 34.5 12 -3.175
      vertex 15 12 12.5
      vertex 34.5 12 3.175
    endloop
  endfacet
  facet normal 1 0 0
    outer loop
      vertex 15 12 12.5
      vertex 15 12 -12.5
      vertex 15 62 -12.5
    endloop
  endfacet
  facet normal 1 0 0
    outer loop
      vertex 15 62 12.5
      vertex 15 12 12.5
      vertex 15 62 -12.5
    endloop
  endfacet
  facet normal 0 -1 0
    outer loop
      vertex 15 62 12.5
      vertex 15 62 -12.5
      vertex 20 62 -12.5
    endloop
  endfacet
  facet normal 0 -1 0
    outer loop
      vertex 20 62 12.5
      vertex 15 62 12.5
      vertex 20 62 -12.5
    endloop
  endfacet
  facet normal 1 0 0
    outer loop
      vertex 20 62 2.32041
      vertex 20 62 12.5
      vertex 20 62 -2.32041
    endloop
  endfacet
  facet normal 1 0 0
    outer loop
      vertex 20 71 -12.5
      vertex 20 71 -4.31695
      vertex 20 62.0763 -2.3339
    endloop
  endfacet
  facet normal 1 0 0
    outer loop
      vertex 20 62 -12.5
      vertex 20 71 -12.5
      vertex 20 62 -2.32041
    endloop
  endfacet
  facet normal 1 0 0
    outer loop
      vertex 20 62 -2.32041
      vertex 20 71 -12.5
      vertex 20 62.0763 -2.3339
    endloop
  endfacet
  facet normal 1 0 0
    outer loop
      vertex 20 70.9082 4.3
      vertex 20 71 12.5
      vertex 20 62 2.32041
    endloop
  endfacet
  facet normal 1 0 0
    outer loop
      vertex 20 71 4.31695
      vertex 20 71 12.5
      vertex 20 70.9082 4.3
    endloop
  endfacet
  facet normal 1 0 0
    outer loop
      vertex 20 71 12.5
      vertex 20 62 12.5
      vertex 20 62 2.32041
    endloop
  endfacet
  facet normal 1 0 0
    outer loop
      vertex 20 62 12.5
      vertex 20 62 -12.5
      vertex 20 62 -2.32041
    endloop
  endfacet
  facet normal 0 -1 0
    outer loop
      vertex 45.099 71 -12.227
      vertex 43.5 71 -12.448
      vertex 43.807 71 -12.432
    endloop
  endfacet
  facet normal 0 -1 0
    outer loop
      vertex 42.986 71 -6.482
      vertex 41.054 71 -6.337
      vertex 43.5 71 -12.5
    endloop
  endfacet
  facet normal 0 -1 0
    outer loop
      vertex 42.986 71 6.482
      vertex 43.807 71 12.432
      vertex 43.5 71 12.448
    endloop
  endfacet
  facet normal 0 -1 0
    outer loop
      vertex 45.099 71 -12.227
      vertex 46.363 71 -11.888
      vertex 43.5 71 -12.448
    endloop
  endfacet
  facet normal 0 -1 0
    outer loop
      vertex 46.363 71 -11.888
      vertex 47.584 71 -11.419
      vertex 43.5 71 -12.448
    endloop
  endfacet
  facet normal 0 -1 0
    outer loop
      vertex 47.584 71 -11.419
      vertex 48.75 71 -10.825
      vertex 43.5 71 -12.448
    endloop
  endfacet
  facet normal 0 -1 0
    outer loop
      vertex 48.75 71 -10.825
      vertex 49.847 71 -10.113
      vertex 43.5 71 -12.448
    endloop
  endfacet
  facet normal 0 -1 0
    outer loop
      vertex 49.847 71 -10.113
      vertex 50.864 71 -9.289
      vertex 43.5 71 -12.448
    endloop
  endfacet
  facet normal 0 -1 0
    outer loop
      vertex 50.864 71 -9.289
      vertex 51.789 71 -8.364
      vertex 43.5 71 -12.448
    endloop
  endfacet
  facet normal 0 -1 0
    outer loop
      vertex 51.789 71 -8.364
      vertex 52.613 71 -7.347
      vertex 43.5 71 -12.448
    endloop
  endfacet
  facet normal 0 -1 0
    outer loop
      vertex 52.613 71 -7.347
      vertex 53.325 71 -6.25
      vertex 43.5 71 -12.448
    endloop
  endfacet
  facet normal 0 -1 0
    outer loop
      vertex 53.325 71 -6.25
      vertex 53.919 71 -5.084
      vertex 43.5 71 -12.448
    endloop
  endfacet
  facet normal 0 -1 0
    outer loop
      vertex 53.919 71 -5.084
      vertex 54.388 71 -3.863
      vertex 43.5 71 -12.448
    endloop
  endfacet
  facet normal 0 -1 0
    outer loop
      vertex 54.388 71 -3.863
      vertex 54.727 71 -2.599
      vertex 43.5 71 -12.448
    endloop
  endfacet
  facet normal 0 -1 0
    outer loop
      vertex 54.727 71 -2.599
      vertex 54.932 71 -1.307
      vertex 43.5 71 -12.448
    endloop
  endfacet
  facet normal 0 -1 0
    outer loop
      vertex 54.932 71 -1.307
      vertex 55 71 3.10862e-15
      vertex 43.5 71 -12.448
    endloop
  endfacet
  facet normal 0 -1 0
    outer loop
      vertex 55 71 3.10862e-15
      vertex 54.932 71 1.307
      vertex 43.5 71 -12.448
    endloop
  endfacet
  facet normal 0 -1 0
    outer loop
      vertex 54.932 71 1.307
      vertex 54.727 71 2.599
      vertex 43.5 71 -12.448
    endloop
  endfacet
  facet normal 0 -1 0
    outer loop
      vertex 54.727 71 2.599
      vertex 54.388 71 3.863
      vertex 43.5 71 -12.448
    endloop
  endfacet
  facet normal 0 -1 0
    outer loop
      vertex 54.388 71 3.863
      vertex 53.919 71 5.084
      vertex 43.5 71 -12.448
    endloop
  endfacet
  facet normal 0 -1 0
    outer loop
      vertex 53.919 71 5.084
      vertex 53.325 71 6.25
      vertex 43.5 71 -12.448
    endloop
  endfacet
  facet normal 0 -1 0
    outer loop
      vertex 49 71 4.21885e-15
      vertex 48.711 71 -1.916
      vertex 52.613 71 7.347
    endloop
  endfacet
  facet normal 0 -1 0
    outer loop
      vertex 44.875 71 6.051
      vertex 47.584 71 11.419
      vertex 46.363 71 11.888
    endloop
  endfacet
  facet normal 0 -1 0
    outer loop
      vertex 44.875 71 6.051
      vertex 46.553 71 5.082
      vertex 47.584 71 11.419
    endloop
  endfacet
  facet normal 0 -1 0
    outer loop
      vertex 36.644 71 -2.82
      vertex 31.7 71 -6.3
      vertex 37.735 71 -4.421
    endloop
  endfacet
  facet normal 0 -1 0
    outer loop
      vertex 43.5 71 12.5
      vertex 42.5 71 12.5
      vertex 43.5 71 12.448
    endloop
  endfacet
  facet normal 0 -1 0
    outer loop
      vertex 42.986 71 6.482
      vertex 45.099 71 12.227
      vertex 43.807 71 12.432
    endloop
  endfacet
  facet normal 0 -1 0
    outer loop
      vertex 42.986 71 6.482
      vertex 44.875 71 6.051
      vertex 45.099 71 12.227
    endloop
  endfacet
  facet normal 0 -1 0
    outer loop
      vertex 31.7 71 6.3
      vertex 31.7 71 -6.3
      vertex 36.644 71 -2.82
    endloop
  endfacet
  facet normal 0 -1 0
    outer loop
      vertex 37.735 71 4.421
      vertex 39.25 71 5.629
      vertex 42.5 71 12.5
    endloop
  endfacet
  facet normal 0 -1 0
    outer loop
      vertex 42.5 71 12.5
      vertex 20 71 12.5
      vertex 31.7 71 6.3
    endloop
  endfacet
  facet normal 0 -1 0
    outer loop
      vertex 36.644 71 -2.82
      vertex 36.073 71 -0.969
      vertex 31.7 71 6.3
    endloop
  endfacet
  facet normal 0 -1 0
    outer loop
      vertex 31.7 71 -6.3
      vertex 20 71 -4.31695
      vertex 43.5 71 -12.5
    endloop
  endfacet
  facet normal 0 -1 0
    outer loop
      vertex 20 71 -4.31695
      vertex 20 71 -12.5
      vertex 43.5 71 -12.5
    endloop
  endfacet
  facet normal 0 -1 0
    outer loop
      vertex 39.25 71 -5.629
      vertex 37.735 71 -4.421
      vertex 43.5 71 -12.5
    endloop
  endfacet
  facet normal 0 -1 0
    outer loop
      vertex 36.644 71 2.82
      vertex 31.7 71 6.3
      vertex 36.073 71 0.969
    endloop
  endfacet
  facet normal 0 -1 0
    outer loop
      vertex 42.5 71 12.5
      vertex 31.7 71 6.3
      vertex 36.644 71 2.82
    endloop
  endfacet
  facet normal 0 -1 0
    outer loop
      vertex 42.5 71 12.5
      vertex 36.644 71 2.82
      vertex 37.735 71 4.421
    endloop
  endfacet
  facet normal 0 -1 0
    outer loop
      vertex 41.054 71 -6.337
      vertex 39.25 71 -5.629
      vertex 43.5 71 -12.5
    endloop
  endfacet
  facet normal 0 -1 0
    outer loop
      vertex 42.5 71 12.5
      vertex 39.25 71 5.629
      vertex 41.054 71 6.337
    endloop
  endfacet
  facet normal 0 -1 0
    outer loop
      vertex 43.5 71 -12.448
      vertex 42.986 71 -6.482
      vertex 43.5 71 -12.5
    endloop
  endfacet
  facet normal 0 -1 0
    outer loop
      vertex 43.5 71 12.448
      vertex 42.5 71 12.5
      vertex 42.986 71 6.482
    endloop
  endfacet
  facet normal 0 -1 0
    outer loop
      vertex 46.553 71 5.082
      vertex 47.871 71 3.662
      vertex 48.75 71 10.825
    endloop
  endfacet
  facet normal 0 -1 0
    outer loop
      vertex 46.363 71 11.888
      vertex 45.099 71 12.227
      vertex 44.875 71 6.051
    endloop
  endfacet
  facet normal 0 -1 0
    outer loop
      vertex 48.75 71 10.825
      vertex 47.584 71 11.419
      vertex 46.553 71 5.082
    endloop
  endfacet
  facet normal 0 -1 0
    outer loop
      vertex 48.711 71 1.916
      vertex 49 71 4.21885e-15
      vertex 51.789 71 8.364
    endloop
  endfacet
  facet normal 0 -1 0
    outer loop
      vertex 49.847 71 10.113
      vertex 48.75 71 10.825
      vertex 47.871 71 3.662
    endloop
  endfacet
  facet normal 0 -1 0
    outer loop
      vertex 47.871 71 -3.662
      vertex 46.553 71 -5.082
      vertex 43.5 71 -12.448
    endloop
  endfacet
  facet normal 0 -1 0
    outer loop
      vertex 51.789 71 8.364
      vertex 50.864 71 9.289
      vertex 48.711 71 1.916
    endloop
  endfacet
  facet normal 0 -1 0
    outer loop
      vertex 52.613 71 7.347
      vertex 51.789 71 8.364
      vertex 49 71 4.21885e-15
    endloop
  endfacet
  facet normal 0 -1 0
    outer loop
      vertex 46.553 71 -5.082
      vertex 44.875 71 -6.051
      vertex 43.5 71 -12.448
    endloop
  endfacet
  facet normal 0 -1 0
    outer loop
      vertex 53.325 71 6.25
      vertex 52.613 71 7.347
      vertex 48.711 71 -1.916
    endloop
  endfacet
  facet normal 0 -1 0
    outer loop
      vertex 53.325 71 6.25
      vertex 47.871 71 -3.662
      vertex 43.5 71 -12.448
    endloop
  endfacet
  facet normal 0 -1 0
    outer loop
      vertex 53.325 71 6.25
      vertex 48.711 71 -1.916
      vertex 47.871 71 -3.662
    endloop
  endfacet
  facet normal 0 -1 0
    outer loop
      vertex 47.871 71 3.662
      vertex 50.864 71 9.289
      vertex 49.847 71 10.113
    endloop
  endfacet
  facet normal 0 -1 0
    outer loop
      vertex 47.871 71 3.662
      vertex 48.711 71 1.916
      vertex 50.864 71 9.289
    endloop
  endfacet
  facet normal 0 -1 0
    outer loop
      vertex 44.875 71 -6.051
      vertex 42.986 71 -6.482
      vertex 43.5 71 -12.448
    endloop
  endfacet
  facet normal 0 -1 0
    outer loop
      vertex 37.735 71 -4.421
      vertex 31.7 71 -6.3
      vertex 43.5 71 -12.5
    endloop
  endfacet
  facet normal 0 -1 0
    outer loop
      vertex 36.073 71 -0.969
      vertex 36.073 71 0.969
      vertex 31.7 71 6.3
    endloop
  endfacet
  facet normal 0 -1 0
    outer loop
      vertex 20 71 4.31695
      vertex 31.7 71 6.3
      vertex 20 71 12.5
    endloop
  endfacet
  facet normal 0 -1 0
    outer loop
      vertex 41.054 71 6.337
      vertex 42.986 71 6.482
      vertex 42.5 71 12.5
    endloop
  endfacet
  facet normal 1 0 0
    outer loop
      vertex 43.5 71 -12.448
      vertex 43.5 71 -12.5
      vertex 43.5 80 -12.5
    endloop
  endfacet
  facet normal 1 0 0
    outer loop
      vertex 43.5 80 -12.448
      vertex 43.5 71 -12.448
      vertex 43.5 80 -12.5
    endloop
  endfacet
  facet normal 0 1 0
    outer loop
      vertex 43.5 80 -12.448
      vertex 43.5 80 -12.5
      vertex 42.5 80 -12.5
    endloop
  endfacet
  facet normal 0 1 0
    outer loop
      vertex 41.193 80 12.432
      vertex 5 80 12.5
      vertex 42.5 80 12.5
    endloop
  endfacet
  facet normal 0 1 0
    outer loop
      vertex 39.901 80 12.227
      vertex 5 80 12.5
      vertex 41.193 80 12.432
    endloop
  endfacet
  facet normal 0 1 0
    outer loop
      vertex 38.637 80 11.888
      vertex 5 80 12.5
      vertex 39.901 80 12.227
    endloop
  endfacet
  facet normal 0 1 0
    outer loop
      vertex 37.416 80 11.419
      vertex 5 80 12.5
      vertex 38.637 80 11.888
    endloop
  endfacet
  facet normal 0 1 0
    outer loop
      vertex 36.25 80 10.825
      vertex 5 80 12.5
      vertex 37.416 80 11.419
    endloop
  endfacet
  facet normal 0 1 0
    outer loop
      vertex 35.153 80 10.113
      vertex 5 80 12.5
      vertex 36.25 80 10.825
    endloop
  endfacet
  facet normal 0 1 0
    outer loop
      vertex 34.136 80 9.289
      vertex 5 80 12.5
      vertex 35.153 80 10.113
    endloop
  endfacet
  facet normal 0 1 0
    outer loop
      vertex 33.211 80 8.364
      vertex 5 80 12.5
      vertex 34.136 80 9.289
    endloop
  endfacet
  facet normal 0 1 0
    outer loop
      vertex 32.387 80 7.347
      vertex 5 80 12.5
      vertex 33.211 80 8.364
    endloop
  endfacet
  facet normal 0 1 0
    outer loop
      vertex 31.675 80 6.25
      vertex 5 80 12.5
      vertex 32.387 80 7.347
    endloop
  endfacet
  facet normal 0 1 0
    outer loop
      vertex 31.081 80 5.084
      vertex 5 80 12.5
      vertex 31.675 80 6.25
    endloop
  endfacet
  facet normal 0 1 0
    outer loop
      vertex 30.612 80 3.863
      vertex 5 80 12.5
      vertex 31.081 80 5.084
    endloop
  endfacet
  facet normal 0 1 0
    outer loop
      vertex 30.273 80 2.599
      vertex 5 80 12.5
      vertex 30.612 80 3.863
    endloop
  endfacet
  facet normal 0 1 0
    outer loop
      vertex 30.068 80 1.307
      vertex 5 80 12.5
      vertex 30.273 80 2.599
    endloop
  endfacet
  facet normal 0 1 0
    outer loop
      vertex 30 80 1.11022e-15
      vertex 5 80 12.5
      vertex 30.068 80 1.307
    endloop
  endfacet
  facet normal 0 1 0
    outer loop
      vertex 30.068 80 -1.307
      vertex 5 80 12.5
      vertex 30 80 1.11022e-15
    endloop
  endfacet
  facet normal 0 1 0
    outer loop
      vertex 30.273 80 -2.599
      vertex 5 80 12.5
      vertex 30.068 80 -1.307
    endloop
  endfacet
  facet normal 0 1 0
    outer loop
      vertex 30.612 80 -3.863
      vertex 5 80 12.5
      vertex 30.273 80 -2.599
    endloop
  endfacet
  facet normal 0 1 0
    outer loop
      vertex 5 80 -12.5
      vertex 5 80 12.5
      vertex 31.081 80 -5.084
    endloop
  endfacet
  facet normal 0 1 0
    outer loop
      vertex 5 80 -12.5
      vertex 31.081 80 -5.084
      vertex 31.675 80 -6.25
    endloop
  endfacet
  facet normal 0 1 0
    outer loop
      vertex 5 80 -12.5
      vertex 31.675 80 -6.25
      vertex 32.387 80 -7.347
    endloop
  endfacet
  facet normal 0 1 0
    outer loop
      vertex 5 80 -12.5
      vertex 32.387 80 -7.347
      vertex 33.211 80 -8.364
    endloop
  endfacet
  facet normal 0 1 0
    outer loop
      vertex 5 80 -12.5
      vertex 33.211 80 -8.364
      vertex 34.136 80 -9.289
    endloop
  endfacet
  facet normal 0 1 0
    outer loop
      vertex 5 80 -12.5
      vertex 34.136 80 -9.289
      vertex 35.153 80 -10.113
    endloop
  endfacet
  facet normal 0 1 0
    outer loop
      vertex 5 80 -12.5
      vertex 35.153 80 -10.113
      vertex 36.25 80 -10.825
    endloop
  endfacet
  facet normal 0 1 0
    outer loop
      vertex 5 80 -12.5
      vertex 36.25 80 -10.825
      vertex 37.416 80 -11.419
    endloop
  endfacet
  facet normal 0 1 0
    outer loop
      vertex 5 80 -12.5
      vertex 37.416 80 -11.419
      vertex 38.637 80 -11.888
    endloop
  endfacet
  facet normal 0 1 0
    outer loop
      vertex 5 80 -12.5
      vertex 38.637 80 -11.888
      vertex 39.901 80 -12.227
    endloop
  endfacet
  facet normal 0 1 0
    outer loop
      vertex 5 80 -12.5
      vertex 39.901 80 -12.227
      vertex 41.193 80 -12.432
    endloop
  endfacet
  facet normal 0 1 0
    outer loop
      vertex 5 80 -12.5
      vertex 41.193 80 -12.432
      vertex 42.5 80 -12.5
    endloop
  endfacet
  facet normal 0 1 0
    outer loop
      vertex 5 80 -12.5
      vertex 42.5 80 -12.5
      vertex 43.5 80 -12.5
    endloop
  endfacet
  facet normal 0 1 0
    outer loop
      vertex 31.081 80 -5.084
      vertex 5 80 12.5
      vertex 30.612 80 -3.863
    endloop
  endfacet
  facet normal -0.195327 0.980738 0
    outer loop
      vertex 3.087 79.619 -12.5
      vertex 3.087 79.619 12.5
      vertex 5 80 -12.5
    endloop
  endfacet
  facet normal -0.195327 0.980738 0
    outer loop
      vertex 5 80 -12.5
      vertex 3.087 79.619 12.5
      vertex 5 80 12.5
    endloop
  endfacet
  facet normal -0.555055 0.831814 0
    outer loop
      vertex 1.464 78.536 -12.5
      vertex 1.464 78.536 12.5
      vertex 3.087 79.619 -12.5
    endloop
  endfacet
  facet normal -0.555055 0.831814 0
    outer loop
      vertex 3.087 79.619 -12.5
      vertex 1.464 78.536 12.5
      vertex 3.087 79.619 12.5
    endloop
  endfacet
  facet normal -0.831814 0.555055 0
    outer loop
      vertex 0.381 76.913 -12.5
      vertex 0.381 76.913 12.5
      vertex 1.464 78.536 -12.5
    endloop
  endfacet
  facet normal -0.831814 0.555055 0
    outer loop
      vertex 1.464 78.536 -12.5
      vertex 0.381 76.913 12.5
      vertex 1.464 78.536 12.5
    endloop
  endfacet
  facet normal -0.980738 0.195327 0
    outer loop
      vertex 0 75 -12.5
      vertex 0 75 12.5
      vertex 0.381 76.913 -12.5
    endloop
  endfacet
  facet normal -0.980738 0.195327 0
    outer loop
      vertex 0.381 76.913 -12.5
      vertex 0 75 12.5
      vertex 0.381 76.913 12.5
    endloop
  endfacet
  facet normal -0.0519573 2.21745e-16 0.998649
    outer loop
      vertex 41.193 85 12.432
      vertex 41.193 80 12.432
      vertex 42.5 80 12.5
    endloop
  endfacet
  facet normal -0.0519573 2.21745e-16 0.998649
    outer loop
      vertex 42.5 85 12.5
      vertex 41.193 85 12.432
      vertex 42.5 80 12.5
    endloop
  endfacet
  facet normal -0.0519573 2.21745e-16 0.998649
    outer loop
      vertex 42.5 71 12.5
      vertex 42.5 85 12.5
      vertex 42.5 80 12.5
    endloop
  endfacet
  facet normal 0.841178 1.20072e-16 0.540758
    outer loop
      vertex 37.872 0 -2.456
      vertex 37.872 6.5 -2.456
      vertex 36.882 6.5 -0.916
    endloop
  endfacet
  facet normal 0.841178 1.20072e-16 0.540758
    outer loop
      vertex 36.882 0 -0.916
      vertex 37.872 0 -2.456
      vertex 36.882 6.5 -0.916
    endloop
  endfacet
  facet normal 1 0 0
    outer loop
      vertex 36.882 6.5 -0.916
      vertex 36.882 6.5 0.916
      vertex 36.882 0 0.916
    endloop
  endfacet
  facet normal 1 0 0
    outer loop
      vertex 36.882 0 -0.916
      vertex 36.882 6.5 -0.916
      vertex 36.882 0 0.916
    endloop
  endfacet
  facet normal 0.415695 2.0195e-16 0.909504
    outer loop
      vertex 39.537 0 -3.217
      vertex 39.537 6.5 -3.217
      vertex 37.872 6.5 -2.456
    endloop
  endfacet
  facet normal 0.415695 2.0195e-16 0.909504
    outer loop
      vertex 37.872 0 -2.456
      vertex 39.537 0 -3.217
      vertex 37.872 6.5 -2.456
    endloop
  endfacet
  facet normal -0.142491 2.19779e-16 0.989796
    outer loop
      vertex 41.35 0 -2.956
      vertex 41.35 6.5 -2.956
      vertex 39.537 6.5 -3.217
    endloop
  endfacet
  facet normal -0.142491 2.19779e-16 0.989796
    outer loop
      vertex 39.537 0 -3.217
      vertex 41.35 0 -2.956
      vertex 39.537 6.5 -3.217
    endloop
  endfacet
  facet normal -0.654785 1.67825e-16 0.755815
    outer loop
      vertex 42.734 0 -1.757
      vertex 42.734 6.5 -1.757
      vertex 41.35 6.5 -2.956
    endloop
  endfacet
  facet normal -0.654785 1.67825e-16 0.755815
    outer loop
      vertex 41.35 0 -2.956
      vertex 42.734 0 -1.757
      vertex 41.35 6.5 -2.956
    endloop
  endfacet
  facet normal -0.959478 6.25682e-17 0.281782
    outer loop
      vertex 43.25 6.5 1.88738e-15
      vertex 42.734 6.5 -1.757
      vertex 43.25 0 3.33067e-15
    endloop
  endfacet
  facet normal -0.959478 6.25682e-17 0.281782
    outer loop
      vertex 43.25 0 3.33067e-15
      vertex 42.734 6.5 -1.757
      vertex 42.734 0 -1.757
    endloop
  endfacet
  facet normal -0.959478 -6.25682e-17 -0.281782
    outer loop
      vertex 43.25 6.5 1.88738e-15
      vertex 43.25 0 3.33067e-15
      vertex 42.734 6.5 1.757
    endloop
  endfacet
  facet normal -0.959478 -6.25682e-17 -0.281782
    outer loop
      vertex 42.734 6.5 1.757
      vertex 43.25 0 3.33067e-15
      vertex 42.734 0 1.757
    endloop
  endfacet
  facet normal -0.654785 -1.67825e-16 -0.755815
    outer loop
      vertex 42.734 6.5 1.757
      vertex 42.734 0 1.757
      vertex 41.35 6.5 2.956
    endloop
  endfacet
  facet normal -0.654785 -1.67825e-16 -0.755815
    outer loop
      vertex 41.35 6.5 2.956
      vertex 42.734 0 1.757
      vertex 41.35 0 2.956
    endloop
  endfacet
  facet normal -0.142491 -2.19779e-16 -0.989796
    outer loop
      vertex 41.35 6.5 2.956
      vertex 41.35 0 2.956
      vertex 39.537 6.5 3.217
    endloop
  endfacet
  facet normal -0.142491 -2.19779e-16 -0.989796
    outer loop
      vertex 39.537 6.5 3.217
      vertex 41.35 0 2.956
      vertex 39.537 0 3.217
    endloop
  endfacet
  facet normal 0.415695 -2.0195e-16 -0.909504
    outer loop
      vertex 39.537 6.5 3.217
      vertex 39.537 0 3.217
      vertex 37.872 6.5 2.456
    endloop
  endfacet
  facet normal 0.415695 -2.0195e-16 -0.909504
    outer loop
      vertex 37.872 6.5 2.456
      vertex 39.537 0 3.217
      vertex 37.872 0 2.456
    endloop
  endfacet
  facet normal 0.841178 -1.20072e-16 -0.540758
    outer loop
      vertex 36.882 6.5 0.916
      vertex 37.872 6.5 2.456
      vertex 37.872 0 2.456
    endloop
  endfacet
  facet normal 0.841178 -1.20072e-16 -0.540758
    outer loop
      vertex 36.882 0 0.916
      vertex 36.882 6.5 0.916
      vertex 37.872 0 2.456
    endloop
  endfacet
  facet normal 0.500068 -1.92288e-16 -0.865986
    outer loop
      vertex 40 12 6.351
      vertex 40 6.5 6.351
      vertex 34.5 12 3.175
    endloop
  endfacet
  facet normal 0.500068 -1.92288e-16 -0.865986
    outer loop
      vertex 34.5 12 3.175
      vertex 40 6.5 6.351
      vertex 34.5 6.5 3.175
    endloop
  endfacet
  facet normal 1 0 0
    outer loop
      vertex 34.5 12 -3.175
      vertex 34.5 12 3.175
      vertex 34.5 6.5 3.175
    endloop
  endfacet
  facet normal 1 0 0
    outer loop
      vertex 34.5 6.5 -3.175
      vertex 34.5 12 -3.175
      vertex 34.5 6.5 3.175
    endloop
  endfacet
  facet normal -0.500068 -1.92288e-16 -0.865986
    outer loop
      vertex 45.5 12 3.175
      vertex 45.5 6.5 3.175
      vertex 40 12 6.351
    endloop
  endfacet
  facet normal -0.500068 -1.92288e-16 -0.865986
    outer loop
      vertex 40 12 6.351
      vertex 45.5 6.5 3.175
      vertex 40 6.5 6.351
    endloop
  endfacet
  facet normal -1 0 0
    outer loop
      vertex 45.5 12 3.175
      vertex 45.5 12 -3.175
      vertex 45.5 6.5 3.175
    endloop
  endfacet
  facet normal -1 0 0
    outer loop
      vertex 45.5 6.5 3.175
      vertex 45.5 12 -3.175
      vertex 45.5 6.5 -3.175
    endloop
  endfacet
  facet normal -0.500068 1.92288e-16 0.865986
    outer loop
      vertex 45.5 6.5 -3.175
      vertex 45.5 12 -3.175
      vertex 40 12 -6.351
    endloop
  endfacet
  facet normal -0.500068 1.92288e-16 0.865986
    outer loop
      vertex 40 6.5 -6.351
      vertex 45.5 6.5 -3.175
      vertex 40 12 -6.351
    endloop
  endfacet
  facet normal 0.500068 1.92288e-16 0.865986
    outer loop
      vertex 40 6.5 -6.351
      vertex 40 12 -6.351
      vertex 34.5 12 -3.175
    endloop
  endfacet
  facet normal 0.500068 1.92288e-16 0.865986
    outer loop
      vertex 34.5 6.5 -3.175
      vertex 40 6.5 -6.351
      vertex 34.5 12 -3.175
    endloop
  endfacet
  facet normal -0.164409 -0.179023 0.970011
    outer loop
      vertex 29.7 62 4.3
      vertex 31.7 71 6.3
      vertex 20 71 4.31695
    endloop
  endfacet
  facet normal -0.164409 -0.179023 0.970011
    outer loop
      vertex 20 70.9082 4.3
      vertex 29.7 62 4.3
      vertex 20 71 4.31695
    endloop
  endfacet
  facet normal -0.195382 -0.21275 0.957373
    outer loop
      vertex 29.7 62 4.3
      vertex 20 70.9082 4.3
      vertex 20 62 2.32041
    endloop
  endfacet
  facet normal -2.22045e-16 -1 -4.93038e-32
    outer loop
      vertex 20 62 -2.32041
      vertex 29.7 62 -4.3
      vertex 29.7 62 4.3
    endloop
  endfacet
  facet normal -2.22045e-16 -1 -4.93038e-32
    outer loop
      vertex 20 62 2.32041
      vertex 20 62 -2.32041
      vertex 29.7 62 4.3
    endloop
  endfacet
  facet normal -0.197023 -0.170754 -0.965414
    outer loop
      vertex 20 62.0763 -2.3339
      vertex 31.7 71 -6.3
      vertex 29.7 62 -4.3
    endloop
  endfacet
  facet normal -0.197023 -0.170754 -0.965414
    outer loop
      vertex 20 62.0763 -2.3339
      vertex 29.7 62 -4.3
      vertex 20 62 -2.32041
    endloop
  endfacet
  facet normal -0.163236 -0.214021 -0.963093
    outer loop
      vertex 20 71 -4.31695
      vertex 31.7 71 -6.3
      vertex 20 62.0763 -2.3339
    endloop
  endfacet
  facet normal 0.976187 -0.21693 2.16757e-16
    outer loop
      vertex 29.7 62 -4.3
      vertex 31.7 71 -6.3
      vertex 31.7 71 6.3
    endloop
  endfacet
  facet normal 0.976187 -0.21693 2.16757e-16
    outer loop
      vertex 29.7 62 4.3
      vertex 29.7 62 -4.3
      vertex 31.7 71 6.3
    endloop
  endfacet
  facet normal 0.0519573 2.21745e-16 0.998649
    outer loop
      vertex 42.5 85 12.5
      vertex 42.5 71 12.5
      vertex 42.5 80 12.5
    endloop
  endfacet
  facet normal 0.0519573 2.21745e-16 0.998649
    outer loop
      vertex 43.5 80 12.448
      vertex 42.5 85 12.5
      vertex 42.5 80 12.5
    endloop
  endfacet
  facet normal 0.0519573 2.21745e-16 0.998649
    outer loop
      vertex 43.807 85 12.432
      vertex 42.5 85 12.5
      vertex 43.5 80 12.448
    endloop
  endfacet
  facet normal 0.0519573 2.21745e-16 0.998649
    outer loop
      vertex 43.807 71 12.432
      vertex 43.5 80 12.448
      vertex 43.5 71 12.448
    endloop
  endfacet
  facet normal 0.0519573 2.21745e-16 0.998649
    outer loop
      vertex 43.807 85 12.432
      vertex 43.5 80 12.448
      vertex 43.807 71 12.432
    endloop
  endfacet
  facet normal 0 0 1
    outer loop
      vertex 43.5 80 12.5
      vertex 42.5 80 12.5
      vertex 42.5 71 12.5
    endloop
  endfacet
  facet normal 0 0 1
    outer loop
      vertex 43.5 71 12.5
      vertex 43.5 80 12.5
      vertex 42.5 71 12.5
    endloop
  endfacet
  facet normal 1 0 0
    outer loop
      vertex 43.5 71 12.5
      vertex 43.5 71 12.448
      vertex 43.5 80 12.448
    endloop
  endfacet
  facet normal 1 0 0
    outer loop
      vertex 43.5 80 12.5
      vertex 43.5 71 12.5
      vertex 43.5 80 12.448
    endloop
  endfacet
  facet normal 0.156708 2.19301e-16 0.987645
    outer loop
      vertex 43.807 85 12.432
      vertex 43.807 71 12.432
      vertex 45.099 71 12.227
    endloop
  endfacet
  facet normal 0.156708 2.19301e-16 0.987645
    outer loop
      vertex 45.099 85 12.227
      vertex 43.807 85 12.432
      vertex 45.099 71 12.227
    endloop
  endfacet
  facet normal 0.259042 2.14465e-16 0.965866
    outer loop
      vertex 45.099 85 12.227
      vertex 45.099 71 12.227
      vertex 46.363 71 11.888
    endloop
  endfacet
  facet normal 0.259042 2.14465e-16 0.965866
    outer loop
      vertex 46.363 85 11.888
      vertex 45.099 85 12.227
      vertex 46.363 71 11.888
    endloop
  endfacet
  facet normal 0.358569 2.07279e-16 0.933503
    outer loop
      vertex 46.363 85 11.888
      vertex 46.363 71 11.888
      vertex 47.584 71 11.419
    endloop
  endfacet
  facet normal 0.358569 2.07279e-16 0.933503
    outer loop
      vertex 47.584 85 11.419
      vertex 46.363 85 11.888
      vertex 47.584 71 11.419
    endloop
  endfacet
  facet normal 0.453926 1.97851e-16 0.891039
    outer loop
      vertex 47.584 85 11.419
      vertex 47.584 71 11.419
      vertex 48.75 71 10.825
    endloop
  endfacet
  facet normal 0.453926 1.97851e-16 0.891039
    outer loop
      vertex 48.75 85 10.825
      vertex 47.584 85 11.419
      vertex 48.75 71 10.825
    endloop
  endfacet
  facet normal 0.544424 1.86253e-16 0.83881
    outer loop
      vertex 48.75 85 10.825
      vertex 48.75 71 10.825
      vertex 49.847 71 10.113
    endloop
  endfacet
  facet normal 0.544424 1.86253e-16 0.83881
    outer loop
      vertex 49.847 85 10.113
      vertex 48.75 85 10.825
      vertex 49.847 71 10.113
    endloop
  endfacet
  facet normal 0.629528 1.72524e-16 0.776978
    outer loop
      vertex 49.847 85 10.113
      vertex 49.847 71 10.113
      vertex 50.864 71 9.289
    endloop
  endfacet
  facet normal 0.629528 1.72524e-16 0.776978
    outer loop
      vertex 50.864 85 9.289
      vertex 49.847 85 10.113
      vertex 50.864 71 9.289
    endloop
  endfacet
  facet normal 0.707107 1.57009e-16 0.707107
    outer loop
      vertex 50.864 85 9.289
      vertex 50.864 71 9.289
      vertex 51.789 71 8.364
    endloop
  endfacet
  facet normal 0.707107 1.57009e-16 0.707107
    outer loop
      vertex 51.789 85 8.364
      vertex 50.864 85 9.289
      vertex 51.789 71 8.364
    endloop
  endfacet
  facet normal 0.776978 1.39783e-16 0.629528
    outer loop
      vertex 51.789 85 8.364
      vertex 51.789 71 8.364
      vertex 52.613 71 7.347
    endloop
  endfacet
  facet normal 0.776978 1.39783e-16 0.629528
    outer loop
      vertex 52.613 85 7.347
      vertex 51.789 85 8.364
      vertex 52.613 71 7.347
    endloop
  endfacet
  facet normal 0.83881 1.20886e-16 0.544424
    outer loop
      vertex 52.613 85 7.347
      vertex 52.613 71 7.347
      vertex 53.325 71 6.25
    endloop
  endfacet
  facet normal 0.83881 1.20886e-16 0.544424
    outer loop
      vertex 53.325 85 6.25
      vertex 52.613 85 7.347
      vertex 53.325 71 6.25
    endloop
  endfacet
  facet normal 0.891039 1.00792e-16 0.453926
    outer loop
      vertex 53.325 85 6.25
      vertex 53.325 71 6.25
      vertex 53.919 71 5.084
    endloop
  endfacet
  facet normal 0.891039 1.00792e-16 0.453926
    outer loop
      vertex 53.919 85 5.084
      vertex 53.325 85 6.25
      vertex 53.919 71 5.084
    endloop
  endfacet
  facet normal 0.933503 7.96184e-17 0.358569
    outer loop
      vertex 53.919 85 5.084
      vertex 53.919 71 5.084
      vertex 54.388 71 3.863
    endloop
  endfacet
  facet normal 0.933503 7.96184e-17 0.358569
    outer loop
      vertex 54.388 85 3.863
      vertex 53.919 85 5.084
      vertex 54.388 71 3.863
    endloop
  endfacet
  facet normal 0.965866 5.75188e-17 0.259042
    outer loop
      vertex 54.388 85 3.863
      vertex 54.388 71 3.863
      vertex 54.727 71 2.599
    endloop
  endfacet
  facet normal 0.965866 5.75188e-17 0.259042
    outer loop
      vertex 54.727 85 2.599
      vertex 54.388 85 3.863
      vertex 54.727 71 2.599
    endloop
  endfacet
  facet normal 0.987645 3.47962e-17 0.156708
    outer loop
      vertex 54.727 85 2.599
      vertex 54.727 71 2.599
      vertex 54.932 71 1.307
    endloop
  endfacet
  facet normal 0.987645 3.47962e-17 0.156708
    outer loop
      vertex 54.932 85 1.307
      vertex 54.727 85 2.599
      vertex 54.932 71 1.307
    endloop
  endfacet
  facet normal 0.998649 1.15368e-17 0.0519573
    outer loop
      vertex 54.932 85 1.307
      vertex 54.932 71 1.307
      vertex 55 71 3.10862e-15
    endloop
  endfacet
  facet normal 0.998649 1.15368e-17 0.0519573
    outer loop
      vertex 55 85 0
      vertex 54.932 85 1.307
      vertex 55 71 3.10862e-15
    endloop
  endfacet
  facet normal 0.998649 -1.15368e-17 -0.0519573
    outer loop
      vertex 55 71 3.10862e-15
      vertex 54.932 71 -1.307
      vertex 54.932 85 -1.307
    endloop
  endfacet
  facet normal 0.998649 -1.15368e-17 -0.0519573
    outer loop
      vertex 55 85 0
      vertex 55 71 3.10862e-15
      vertex 54.932 85 -1.307
    endloop
  endfacet
  facet normal 0.987645 -3.47962e-17 -0.156708
    outer loop
      vertex 54.932 71 -1.307
      vertex 54.727 71 -2.599
      vertex 54.727 85 -2.599
    endloop
  endfacet
  facet normal 0.987645 -3.47962e-17 -0.156708
    outer loop
      vertex 54.932 85 -1.307
      vertex 54.932 71 -1.307
      vertex 54.727 85 -2.599
    endloop
  endfacet
  facet normal 0.965866 -5.75188e-17 -0.259042
    outer loop
      vertex 54.727 71 -2.599
      vertex 54.388 71 -3.863
      vertex 54.388 85 -3.863
    endloop
  endfacet
  facet normal 0.965866 -5.75188e-17 -0.259042
    outer loop
      vertex 54.727 85 -2.599
      vertex 54.727 71 -2.599
      vertex 54.388 85 -3.863
    endloop
  endfacet
  facet normal 0.933503 -7.96184e-17 -0.358569
    outer loop
      vertex 54.388 71 -3.863
      vertex 53.919 71 -5.084
      vertex 53.919 85 -5.084
    endloop
  endfacet
  facet normal 0.933503 -7.96184e-17 -0.358569
    outer loop
      vertex 54.388 85 -3.863
      vertex 54.388 71 -3.863
      vertex 53.919 85 -5.084
    endloop
  endfacet
  facet normal 0.891039 -1.00792e-16 -0.453926
    outer loop
      vertex 53.919 71 -5.084
      vertex 53.325 71 -6.25
      vertex 53.325 85 -6.25
    endloop
  endfacet
  facet normal 0.891039 -1.00792e-16 -0.453926
    outer loop
      vertex 53.919 85 -5.084
      vertex 53.919 71 -5.084
      vertex 53.325 85 -6.25
    endloop
  endfacet
  facet normal 0.83881 -1.20886e-16 -0.544424
    outer loop
      vertex 53.325 71 -6.25
      vertex 52.613 71 -7.347
      vertex 52.613 85 -7.347
    endloop
  endfacet
  facet normal 0.83881 -1.20886e-16 -0.544424
    outer loop
      vertex 53.325 85 -6.25
      vertex 53.325 71 -6.25
      vertex 52.613 85 -7.347
    endloop
  endfacet
  facet normal 0.776978 -1.39783e-16 -0.629528
    outer loop
      vertex 52.613 71 -7.347
      vertex 51.789 71 -8.364
      vertex 51.789 85 -8.364
    endloop
  endfacet
  facet normal 0.776978 -1.39783e-16 -0.629528
    outer loop
      vertex 52.613 85 -7.347
      vertex 52.613 71 -7.347
      vertex 51.789 85 -8.364
    endloop
  endfacet
  facet normal 0.707107 -1.57009e-16 -0.707107
    outer loop
      vertex 51.789 71 -8.364
      vertex 50.864 71 -9.289
      vertex 50.864 85 -9.289
    endloop
  endfacet
  facet normal 0.707107 -1.57009e-16 -0.707107
    outer loop
      vertex 51.789 85 -8.364
      vertex 51.789 71 -8.364
      vertex 50.864 85 -9.289
    endloop
  endfacet
  facet normal 0.629528 -1.72524e-16 -0.776978
    outer loop
      vertex 49.847 71 -10.113
      vertex 49.847 85 -10.113
      vertex 50.864 71 -9.289
    endloop
  endfacet
  facet normal 0.629528 -1.72524e-16 -0.776978
    outer loop
      vertex 50.864 71 -9.289
      vertex 49.847 85 -10.113
      vertex 50.864 85 -9.289
    endloop
  endfacet
  facet normal 0.544424 -1.86253e-16 -0.83881
    outer loop
      vertex 48.75 71 -10.825
      vertex 48.75 85 -10.825
      vertex 49.847 71 -10.113
    endloop
  endfacet
  facet normal 0.544424 -1.86253e-16 -0.83881
    outer loop
      vertex 49.847 71 -10.113
      vertex 48.75 85 -10.825
      vertex 49.847 85 -10.113
    endloop
  endfacet
  facet normal 0.453926 -1.97851e-16 -0.891039
    outer loop
      vertex 47.584 71 -11.419
      vertex 47.584 85 -11.419
      vertex 48.75 71 -10.825
    endloop
  endfacet
  facet normal 0.453926 -1.97851e-16 -0.891039
    outer loop
      vertex 48.75 71 -10.825
      vertex 47.584 85 -11.419
      vertex 48.75 85 -10.825
    endloop
  endfacet
  facet normal 0.358569 -2.07279e-16 -0.933503
    outer loop
      vertex 46.363 71 -11.888
      vertex 46.363 85 -11.888
      vertex 47.584 71 -11.419
    endloop
  endfacet
  facet normal 0.358569 -2.07279e-16 -0.933503
    outer loop
      vertex 47.584 71 -11.419
      vertex 46.363 85 -11.888
      vertex 47.584 85 -11.419
    endloop
  endfacet
  facet normal 0.259042 -2.14465e-16 -0.965866
    outer loop
      vertex 45.099 71 -12.227
      vertex 45.099 85 -12.227
      vertex 46.363 71 -11.888
    endloop
  endfacet
  facet normal 0.259042 -2.14465e-16 -0.965866
    outer loop
      vertex 46.363 71 -11.888
      vertex 45.099 85 -12.227
      vertex 46.363 85 -11.888
    endloop
  endfacet
  facet normal 0.156708 -2.19301e-16 -0.987645
    outer loop
      vertex 43.807 71 -12.432
      vertex 43.807 85 -12.432
      vertex 45.099 71 -12.227
    endloop
  endfacet
  facet normal 0.156708 -2.19301e-16 -0.987645
    outer loop
      vertex 45.099 71 -12.227
      vertex 43.807 85 -12.432
      vertex 45.099 85 -12.227
    endloop
  endfacet
  facet normal 0.0519573 -2.21745e-16 -0.998649
    outer loop
      vertex 42.5 80 -12.5
      vertex 42.5 85 -12.5
      vertex 43.5 80 -12.448
    endloop
  endfacet
  facet normal 0.0519573 -2.21745e-16 -0.998649
    outer loop
      vertex 43.5 80 -12.448
      vertex 42.5 85 -12.5
      vertex 43.807 85 -12.432
    endloop
  endfacet
  facet normal 0.0519573 -2.21745e-16 -0.998649
    outer loop
      vertex 43.5 80 -12.448
      vertex 43.807 85 -12.432
      vertex 43.807 71 -12.432
    endloop
  endfacet
  facet normal 0.0519573 -2.21745e-16 -0.998649
    outer loop
      vertex 43.5 80 -12.448
      vertex 43.807 71 -12.432
      vertex 43.5 71 -12.448
    endloop
  endfacet
  facet normal 1 0 0
    outer loop
      vertex 36.073 85 -0.969
      vertex 36.073 85 0.969
      vertex 36.073 71 0.969
    endloop
  endfacet
  facet normal 1 0 0
    outer loop
      vertex 36.073 71 -0.969
      vertex 36.073 85 -0.969
      vertex 36.073 71 0.969
    endloop
  endfacet
  facet normal 0.955567 -6.54532e-17 -0.294775
    outer loop
      vertex 36.073 85 0.969
      vertex 36.644 85 2.82
      vertex 36.644 71 2.82
    endloop
  endfacet
  facet normal 0.955567 -6.54532e-17 -0.294775
    outer loop
      vertex 36.073 71 0.969
      vertex 36.073 85 0.969
      vertex 36.644 71 2.82
    endloop
  endfacet
  facet normal 0.955567 6.54532e-17 0.294775
    outer loop
      vertex 36.644 71 -2.82
      vertex 36.644 85 -2.82
      vertex 36.073 85 -0.969
    endloop
  endfacet
  facet normal 0.955567 6.54532e-17 0.294775
    outer loop
      vertex 36.073 71 -0.969
      vertex 36.644 71 -2.82
      vertex 36.073 85 -0.969
    endloop
  endfacet
  facet normal 0.826369 1.2504e-16 0.563129
    outer loop
      vertex 37.735 71 -4.421
      vertex 37.735 85 -4.421
      vertex 36.644 85 -2.82
    endloop
  endfacet
  facet normal 0.826369 1.2504e-16 0.563129
    outer loop
      vertex 36.644 71 -2.82
      vertex 37.735 71 -4.421
      vertex 36.644 85 -2.82
    endloop
  endfacet
  facet normal 0.623435 1.73611e-16 0.781875
    outer loop
      vertex 39.25 71 -5.629
      vertex 39.25 85 -5.629
      vertex 37.735 85 -4.421
    endloop
  endfacet
  facet normal 0.623435 1.73611e-16 0.781875
    outer loop
      vertex 37.735 71 -4.421
      vertex 39.25 71 -5.629
      vertex 37.735 85 -4.421
    endloop
  endfacet
  facet normal 0.365333 2.06696e-16 0.930877
    outer loop
      vertex 41.054 71 -6.337
      vertex 41.054 85 -6.337
      vertex 39.25 85 -5.629
    endloop
  endfacet
  facet normal 0.365333 2.06696e-16 0.930877
    outer loop
      vertex 39.25 71 -5.629
      vertex 41.054 71 -6.337
      vertex 39.25 85 -5.629
    endloop
  endfacet
  facet normal 0.0748413 2.21422e-16 0.997195
    outer loop
      vertex 42.986 71 -6.482
      vertex 42.986 85 -6.482
      vertex 41.054 85 -6.337
    endloop
  endfacet
  facet normal 0.0748413 2.21422e-16 0.997195
    outer loop
      vertex 41.054 71 -6.337
      vertex 42.986 71 -6.482
      vertex 41.054 85 -6.337
    endloop
  endfacet
  facet normal -0.222446 2.16481e-16 0.974945
    outer loop
      vertex 44.875 71 -6.051
      vertex 44.875 85 -6.051
      vertex 42.986 85 -6.482
    endloop
  endfacet
  facet normal -0.222446 2.16481e-16 0.974945
    outer loop
      vertex 42.986 71 -6.482
      vertex 44.875 71 -6.051
      vertex 42.986 85 -6.482
    endloop
  endfacet
  facet normal -0.50008 1.92286e-16 0.865979
    outer loop
      vertex 46.553 71 -5.082
      vertex 46.553 85 -5.082
      vertex 44.875 85 -6.051
    endloop
  endfacet
  facet normal -0.50008 1.92286e-16 0.865979
    outer loop
      vertex 44.875 71 -6.051
      vertex 46.553 71 -5.082
      vertex 44.875 85 -6.051
    endloop
  endfacet
  facet normal -0.732941 1.51055e-16 0.680293
    outer loop
      vertex 47.871 85 -3.662
      vertex 46.553 85 -5.082
      vertex 47.871 71 -3.662
    endloop
  endfacet
  facet normal -0.732941 1.51055e-16 0.680293
    outer loop
      vertex 47.871 71 -3.662
      vertex 46.553 85 -5.082
      vertex 46.553 71 -5.082
    endloop
  endfacet
  facet normal -0.901136 9.62644e-17 0.433536
    outer loop
      vertex 48.711 85 -1.916
      vertex 47.871 85 -3.662
      vertex 48.711 71 -1.916
    endloop
  endfacet
  facet normal -0.901136 9.62644e-17 0.433536
    outer loop
      vertex 48.711 71 -1.916
      vertex 47.871 85 -3.662
      vertex 47.871 71 -3.662
    endloop
  endfacet
  facet normal -0.988815 3.31175e-17 0.149148
    outer loop
      vertex 49 85 1.11022e-15
      vertex 48.711 85 -1.916
      vertex 49 71 4.21885e-15
    endloop
  endfacet
  facet normal -0.988815 3.31175e-17 0.149148
    outer loop
      vertex 49 71 4.21885e-15
      vertex 48.711 85 -1.916
      vertex 48.711 71 -1.916
    endloop
  endfacet
  facet normal -0.988815 -3.31175e-17 -0.149148
    outer loop
      vertex 49 85 1.11022e-15
      vertex 49 71 4.21885e-15
      vertex 48.711 85 1.916
    endloop
  endfacet
  facet normal -0.988815 -3.31175e-17 -0.149148
    outer loop
      vertex 48.711 85 1.916
      vertex 49 71 4.21885e-15
      vertex 48.711 71 1.916
    endloop
  endfacet
  facet normal -0.901136 -9.62644e-17 -0.433536
    outer loop
      vertex 48.711 85 1.916
      vertex 48.711 71 1.916
      vertex 47.871 85 3.662
    endloop
  endfacet
  facet normal -0.901136 -9.62644e-17 -0.433536
    outer loop
      vertex 47.871 85 3.662
      vertex 48.711 71 1.916
      vertex 47.871 71 3.662
    endloop
  endfacet
  facet normal -0.732941 -1.51055e-16 -0.680293
    outer loop
      vertex 47.871 85 3.662
      vertex 47.871 71 3.662
      vertex 46.553 85 5.082
    endloop
  endfacet
  facet normal -0.732941 -1.51055e-16 -0.680293
    outer loop
      vertex 46.553 85 5.082
      vertex 47.871 71 3.662
      vertex 46.553 71 5.082
    endloop
  endfacet
  facet normal -0.50008 -1.92286e-16 -0.865979
    outer loop
      vertex 46.553 85 5.082
      vertex 46.553 71 5.082
      vertex 44.875 85 6.051
    endloop
  endfacet
  facet normal -0.50008 -1.92286e-16 -0.865979
    outer loop
      vertex 44.875 85 6.051
      vertex 46.553 71 5.082
      vertex 44.875 71 6.051
    endloop
  endfacet
  facet normal -0.222446 -2.16481e-16 -0.974945
    outer loop
      vertex 44.875 85 6.051
      vertex 44.875 71 6.051
      vertex 42.986 85 6.482
    endloop
  endfacet
  facet normal -0.222446 -2.16481e-16 -0.974945
    outer loop
      vertex 42.986 85 6.482
      vertex 44.875 71 6.051
      vertex 42.986 71 6.482
    endloop
  endfacet
  facet normal 0.0748413 -2.21422e-16 -0.997195
    outer loop
      vertex 42.986 85 6.482
      vertex 42.986 71 6.482
      vertex 41.054 85 6.337
    endloop
  endfacet
  facet normal 0.0748413 -2.21422e-16 -0.997195
    outer loop
      vertex 41.054 85 6.337
      vertex 42.986 71 6.482
      vertex 41.054 71 6.337
    endloop
  endfacet
  facet normal 0.365333 -2.06696e-16 -0.930877
    outer loop
      vertex 41.054 85 6.337
      vertex 41.054 71 6.337
      vertex 39.25 85 5.629
    endloop
  endfacet
  facet normal 0.365333 -2.06696e-16 -0.930877
    outer loop
      vertex 39.25 85 5.629
      vertex 41.054 71 6.337
      vertex 39.25 71 5.629
    endloop
  endfacet
  facet normal 0.623435 -1.73611e-16 -0.781875
    outer loop
      vertex 39.25 85 5.629
      vertex 39.25 71 5.629
      vertex 37.735 85 4.421
    endloop
  endfacet
  facet normal 0.623435 -1.73611e-16 -0.781875
    outer loop
      vertex 37.735 85 4.421
      vertex 39.25 71 5.629
      vertex 37.735 71 4.421
    endloop
  endfacet
  facet normal 0.826369 -1.2504e-16 -0.563129
    outer loop
      vertex 36.644 85 2.82
      vertex 37.735 85 4.421
      vertex 37.735 71 4.421
    endloop
  endfacet
  facet normal 0.826369 -1.2504e-16 -0.563129
    outer loop
      vertex 36.644 71 2.82
      vertex 36.644 85 2.82
      vertex 37.735 71 4.421
    endloop
  endfacet
  facet normal -0.0519573 -2.21745e-16 -0.998649
    outer loop
      vertex 41.193 80 -12.432
      vertex 41.193 85 -12.432
      vertex 42.5 80 -12.5
    endloop
  endfacet
  facet normal -0.0519573 -2.21745e-16 -0.998649
    outer loop
      vertex 42.5 80 -12.5
      vertex 41.193 85 -12.432
      vertex 42.5 85 -12.5
    endloop
  endfacet
  facet normal -0.156708 -2.19301e-16 -0.987645
    outer loop
      vertex 39.901 80 -12.227
      vertex 39.901 85 -12.227
      vertex 41.193 80 -12.432
    endloop
  endfacet
  facet normal -0.156708 -2.19301e-16 -0.987645
    outer loop
      vertex 41.193 80 -12.432
      vertex 39.901 85 -12.227
      vertex 41.193 85 -12.432
    endloop
  endfacet
  facet normal -0.259042 -2.14465e-16 -0.965866
    outer loop
      vertex 38.637 80 -11.888
      vertex 38.637 85 -11.888
      vertex 39.901 80 -12.227
    endloop
  endfacet
  facet normal -0.259042 -2.14465e-16 -0.965866
    outer loop
      vertex 39.901 80 -12.227
      vertex 38.637 85 -11.888
      vertex 39.901 85 -12.227
    endloop
  endfacet
  facet normal -0.358569 -2.07279e-16 -0.933503
    outer loop
      vertex 37.416 80 -11.419
      vertex 37.416 85 -11.419
      vertex 38.637 80 -11.888
    endloop
  endfacet
  facet normal -0.358569 -2.07279e-16 -0.933503
    outer loop
      vertex 38.637 80 -11.888
      vertex 37.416 85 -11.419
      vertex 38.637 85 -11.888
    endloop
  endfacet
  facet normal -0.453926 -1.97851e-16 -0.891039
    outer loop
      vertex 36.25 80 -10.825
      vertex 36.25 85 -10.825
      vertex 37.416 80 -11.419
    endloop
  endfacet
  facet normal -0.453926 -1.97851e-16 -0.891039
    outer loop
      vertex 37.416 80 -11.419
      vertex 36.25 85 -10.825
      vertex 37.416 85 -11.419
    endloop
  endfacet
  facet normal -0.544424 -1.86253e-16 -0.83881
    outer loop
      vertex 35.153 80 -10.113
      vertex 35.153 85 -10.113
      vertex 36.25 80 -10.825
    endloop
  endfacet
  facet normal -0.544424 -1.86253e-16 -0.83881
    outer loop
      vertex 36.25 80 -10.825
      vertex 35.153 85 -10.113
      vertex 36.25 85 -10.825
    endloop
  endfacet
  facet normal -0.629528 -1.72524e-16 -0.776978
    outer loop
      vertex 34.136 80 -9.289
      vertex 34.136 85 -9.289
      vertex 35.153 80 -10.113
    endloop
  endfacet
  facet normal -0.629528 -1.72524e-16 -0.776978
    outer loop
      vertex 35.153 80 -10.113
      vertex 34.136 85 -9.289
      vertex 35.153 85 -10.113
    endloop
  endfacet
  facet normal -0.707107 -1.57009e-16 -0.707107
    outer loop
      vertex 33.211 80 -8.364
      vertex 33.211 85 -8.364
      vertex 34.136 80 -9.289
    endloop
  endfacet
  facet normal -0.707107 -1.57009e-16 -0.707107
    outer loop
      vertex 34.136 80 -9.289
      vertex 33.211 85 -8.364
      vertex 34.136 85 -9.289
    endloop
  endfacet
  facet normal -0.776978 -1.39783e-16 -0.629528
    outer loop
      vertex 32.387 80 -7.347
      vertex 32.387 85 -7.347
      vertex 33.211 80 -8.364
    endloop
  endfacet
  facet normal -0.776978 -1.39783e-16 -0.629528
    outer loop
      vertex 33.211 80 -8.364
      vertex 32.387 85 -7.347
      vertex 33.211 85 -8.364
    endloop
  endfacet
  facet normal -0.83881 -1.20886e-16 -0.544424
    outer loop
      vertex 31.675 80 -6.25
      vertex 31.675 85 -6.25
      vertex 32.387 80 -7.347
    endloop
  endfacet
  facet normal -0.83881 -1.20886e-16 -0.544424
    outer loop
      vertex 32.387 80 -7.347
      vertex 31.675 85 -6.25
      vertex 32.387 85 -7.347
    endloop
  endfacet
  facet normal -0.891039 -1.00792e-16 -0.453926
    outer loop
      vertex 31.081 80 -5.084
      vertex 31.081 85 -5.084
      vertex 31.675 80 -6.25
    endloop
  endfacet
  facet normal -0.891039 -1.00792e-16 -0.453926
    outer loop
      vertex 31.675 80 -6.25
      vertex 31.081 85 -5.084
      vertex 31.675 85 -6.25
    endloop
  endfacet
  facet normal -0.933503 -7.96184e-17 -0.358569
    outer loop
      vertex 30.612 80 -3.863
      vertex 30.612 85 -3.863
      vertex 31.081 80 -5.084
    endloop
  endfacet
  facet normal -0.933503 -7.96184e-17 -0.358569
    outer loop
      vertex 31.081 80 -5.084
      vertex 30.612 85 -3.863
      vertex 31.081 85 -5.084
    endloop
  endfacet
  facet normal -0.965866 -5.75188e-17 -0.259042
    outer loop
      vertex 30.273 80 -2.599
      vertex 30.273 85 -2.599
      vertex 30.612 80 -3.863
    endloop
  endfacet
  facet normal -0.965866 -5.75188e-17 -0.259042
    outer loop
      vertex 30.612 80 -3.863
      vertex 30.273 85 -2.599
      vertex 30.612 85 -3.863
    endloop
  endfacet
  facet normal -0.987645 -3.47962e-17 -0.156708
    outer loop
      vertex 30.068 80 -1.307
      vertex 30.068 85 -1.307
      vertex 30.273 80 -2.599
    endloop
  endfacet
  facet normal -0.987645 -3.47962e-17 -0.156708
    outer loop
      vertex 30.273 80 -2.599
      vertex 30.068 85 -1.307
      vertex 30.273 85 -2.599
    endloop
  endfacet
  facet normal -0.998649 -1.15368e-17 -0.0519573
    outer loop
      vertex 30 80 1.11022e-15
      vertex 30 85 0
      vertex 30.068 80 -1.307
    endloop
  endfacet
  facet normal -0.998649 -1.15368e-17 -0.0519573
    outer loop
      vertex 30.068 80 -1.307
      vertex 30 85 0
      vertex 30.068 85 -1.307
    endloop
  endfacet
  facet normal -0.998649 1.15368e-17 0.0519573
    outer loop
      vertex 30 80 1.11022e-15
      vertex 30.068 80 1.307
      vertex 30 85 0
    endloop
  endfacet
  facet normal -0.998649 1.15368e-17 0.0519573
    outer loop
      vertex 30 85 0
      vertex 30.068 80 1.307
      vertex 30.068 85 1.307
    endloop
  endfacet
  facet normal -0.987645 3.47962e-17 0.156708
    outer loop
      vertex 30.068 80 1.307
      vertex 30.273 80 2.599
      vertex 30.068 85 1.307
    endloop
  endfacet
  facet normal -0.987645 3.47962e-17 0.156708
    outer loop
      vertex 30.068 85 1.307
      vertex 30.273 80 2.599
      vertex 30.273 85 2.599
    endloop
  endfacet
  facet normal -0.965866 5.75188e-17 0.259042
    outer loop
      vertex 30.273 80 2.599
      vertex 30.612 80 3.863
      vertex 30.273 85 2.599
    endloop
  endfacet
  facet normal -0.965866 5.75188e-17 0.259042
    outer loop
      vertex 30.273 85 2.599
      vertex 30.612 80 3.863
      vertex 30.612 85 3.863
    endloop
  endfacet
  facet normal -0.933503 7.96184e-17 0.358569
    outer loop
      vertex 30.612 80 3.863
      vertex 31.081 80 5.084
      vertex 30.612 85 3.863
    endloop
  endfacet
  facet normal -0.933503 7.96184e-17 0.358569
    outer loop
      vertex 30.612 85 3.863
      vertex 31.081 80 5.084
      vertex 31.081 85 5.084
    endloop
  endfacet
  facet normal -0.891039 1.00792e-16 0.453926
    outer loop
      vertex 31.081 80 5.084
      vertex 31.675 80 6.25
      vertex 31.081 85 5.084
    endloop
  endfacet
  facet normal -0.891039 1.00792e-16 0.453926
    outer loop
      vertex 31.081 85 5.084
      vertex 31.675 80 6.25
      vertex 31.675 85 6.25
    endloop
  endfacet
  facet normal -0.83881 1.20886e-16 0.544424
    outer loop
      vertex 31.675 80 6.25
      vertex 32.387 80 7.347
      vertex 31.675 85 6.25
    endloop
  endfacet
  facet normal -0.83881 1.20886e-16 0.544424
    outer loop
      vertex 31.675 85 6.25
      vertex 32.387 80 7.347
      vertex 32.387 85 7.347
    endloop
  endfacet
  facet normal -0.776978 1.39783e-16 0.629528
    outer loop
      vertex 32.387 80 7.347
      vertex 33.211 80 8.364
      vertex 32.387 85 7.347
    endloop
  endfacet
  facet normal -0.776978 1.39783e-16 0.629528
    outer loop
      vertex 32.387 85 7.347
      vertex 33.211 80 8.364
      vertex 33.211 85 8.364
    endloop
  endfacet
  facet normal -0.707107 1.57009e-16 0.707107
    outer loop
      vertex 33.211 80 8.364
      vertex 34.136 80 9.289
      vertex 33.211 85 8.364
    endloop
  endfacet
  facet normal -0.707107 1.57009e-16 0.707107
    outer loop
      vertex 33.211 85 8.364
      vertex 34.136 80 9.289
      vertex 34.136 85 9.289
    endloop
  endfacet
  facet normal -0.629528 1.72524e-16 0.776978
    outer loop
      vertex 34.136 85 9.289
      vertex 34.136 80 9.289
      vertex 35.153 80 10.113
    endloop
  endfacet
  facet normal -0.629528 1.72524e-16 0.776978
    outer loop
      vertex 35.153 85 10.113
      vertex 34.136 85 9.289
      vertex 35.153 80 10.113
    endloop
  endfacet
  facet normal -0.544424 1.86253e-16 0.83881
    outer loop
      vertex 35.153 85 10.113
      vertex 35.153 80 10.113
      vertex 36.25 80 10.825
    endloop
  endfacet
  facet normal -0.544424 1.86253e-16 0.83881
    outer loop
      vertex 36.25 85 10.825
      vertex 35.153 85 10.113
      vertex 36.25 80 10.825
    endloop
  endfacet
  facet normal -0.453926 1.97851e-16 0.891039
    outer loop
      vertex 36.25 85 10.825
      vertex 36.25 80 10.825
      vertex 37.416 80 11.419
    endloop
  endfacet
  facet normal -0.453926 1.97851e-16 0.891039
    outer loop
      vertex 37.416 85 11.419
      vertex 36.25 85 10.825
      vertex 37.416 80 11.419
    endloop
  endfacet
  facet normal -0.358569 2.07279e-16 0.933503
    outer loop
      vertex 37.416 85 11.419
      vertex 37.416 80 11.419
      vertex 38.637 80 11.888
    endloop
  endfacet
  facet normal -0.358569 2.07279e-16 0.933503
    outer loop
      vertex 38.637 85 11.888
      vertex 37.416 85 11.419
      vertex 38.637 80 11.888
    endloop
  endfacet
  facet normal -0.259042 2.14465e-16 0.965866
    outer loop
      vertex 38.637 85 11.888
      vertex 38.637 80 11.888
      vertex 39.901 80 12.227
    endloop
  endfacet
  facet normal -0.259042 2.14465e-16 0.965866
    outer loop
      vertex 39.901 85 12.227
      vertex 38.637 85 11.888
      vertex 39.901 80 12.227
    endloop
  endfacet
  facet normal -0.156708 2.19301e-16 0.987645
    outer loop
      vertex 39.901 85 12.227
      vertex 39.901 80 12.227
      vertex 41.193 80 12.432
    endloop
  endfacet
  facet normal -0.156708 2.19301e-16 0.987645
    outer loop
      vertex 41.193 85 12.432
      vertex 39.901 85 12.227
      vertex 41.193 80 12.432
    endloop
  endfacet
  facet normal 0 1 -2.22045e-16
    outer loop
      vertex 30 85 0
      vertex 30.068 85 1.307
      vertex 30.068 85 -1.307
    endloop
  endfacet
  facet normal 0 1 -2.22045e-16
    outer loop
      vertex 30.068 85 -1.307
      vertex 30.068 85 1.307
      vertex 30.273 85 2.599
    endloop
  endfacet
  facet normal 0 1 -2.22045e-16
    outer loop
      vertex 30.068 85 -1.307
      vertex 30.273 85 2.599
      vertex 30.612 85 3.863
    endloop
  endfacet
  facet normal 0 1 -2.22045e-16
    outer loop
      vertex 30.068 85 -1.307
      vertex 30.612 85 3.863
      vertex 31.081 85 5.084
    endloop
  endfacet
  facet normal 0 1 -2.22045e-16
    outer loop
      vertex 30.068 85 -1.307
      vertex 31.081 85 5.084
      vertex 31.675 85 6.25
    endloop
  endfacet
  facet normal 0 1 -2.22045e-16
    outer loop
      vertex 30.068 85 -1.307
      vertex 31.675 85 6.25
      vertex 32.387 85 7.347
    endloop
  endfacet
  facet normal 0 1 -2.22045e-16
    outer loop
      vertex 30.068 85 -1.307
      vertex 32.387 85 7.347
      vertex 33.211 85 8.364
    endloop
  endfacet
  facet normal 0 1 -2.22045e-16
    outer loop
      vertex 30.068 85 -1.307
      vertex 33.211 85 8.364
      vertex 34.136 85 9.289
    endloop
  endfacet
  facet normal 0 1 -2.22045e-16
    outer loop
      vertex 30.068 85 -1.307
      vertex 34.136 85 9.289
      vertex 35.153 85 10.113
    endloop
  endfacet
  facet normal 0 1 -2.22045e-16
    outer loop
      vertex 30.068 85 -1.307
      vertex 35.153 85 10.113
      vertex 36.25 85 10.825
    endloop
  endfacet
  facet normal 0 1 -2.22045e-16
    outer loop
      vertex 30.068 85 -1.307
      vertex 36.25 85 10.825
      vertex 37.416 85 11.419
    endloop
  endfacet
  facet normal 0 1 -2.22045e-16
    outer loop
      vertex 30.068 85 -1.307
      vertex 37.416 85 11.419
      vertex 38.637 85 11.888
    endloop
  endfacet
  facet normal 0 1 -2.22045e-16
    outer loop
      vertex 30.068 85 -1.307
      vertex 38.637 85 11.888
      vertex 39.901 85 12.227
    endloop
  endfacet
  facet normal 0 1 -2.22045e-16
    outer loop
      vertex 30.068 85 -1.307
      vertex 39.901 85 12.227
      vertex 41.193 85 12.432
    endloop
  endfacet
  facet normal 0 1 -2.22045e-16
    outer loop
      vertex 30.068 85 -1.307
      vertex 41.193 85 12.432
      vertex 42.5 85 12.5
    endloop
  endfacet
  facet normal 0 1 -2.22045e-16
    outer loop
      vertex 30.068 85 -1.307
      vertex 42.5 85 12.5
      vertex 43.807 85 12.432
    endloop
  endfacet
  facet normal 0 1 -2.22045e-16
    outer loop
      vertex 30.068 85 -1.307
      vertex 43.807 85 12.432
      vertex 45.099 85 12.227
    endloop
  endfacet
  facet normal 0 1 -2.22045e-16
    outer loop
      vertex 30.068 85 -1.307
      vertex 45.099 85 12.227
      vertex 46.363 85 11.888
    endloop
  endfacet
  facet normal 0 1 -2.22045e-16
    outer loop
      vertex 39.25 85 5.629
      vertex 46.363 85 11.888
      vertex 47.584 85 11.419
    endloop
  endfacet
  facet normal 0 1 -2.22045e-16
    outer loop
      vertex 41.054 85 6.337
      vertex 47.584 85 11.419
      vertex 48.75 85 10.825
    endloop
  endfacet
  facet normal 0 1 -2.22045e-16
    outer loop
      vertex 42.986 85 6.482
      vertex 48.75 85 10.825
      vertex 49.847 85 10.113
    endloop
  endfacet
  facet normal 0 1 -2.22045e-16
    outer loop
      vertex 48.711 85 1.916
      vertex 54.727 85 2.599
      vertex 54.932 85 1.307
    endloop
  endfacet
  facet normal 0 1 -2.22045e-16
    outer loop
      vertex 44.875 85 6.051
      vertex 50.864 85 9.289
      vertex 51.789 85 8.364
    endloop
  endfacet
  facet normal 0 1 -2.22045e-16
    outer loop
      vertex 46.553 85 5.082
      vertex 51.789 85 8.364
      vertex 52.613 85 7.347
    endloop
  endfacet
  facet normal 0 1 -2.22045e-16
    outer loop
      vertex 47.871 85 3.662
      vertex 53.325 85 6.25
      vertex 53.919 85 5.084
    endloop
  endfacet
  facet normal 0 1 -2.22045e-16
    outer loop
      vertex 49 85 1.11022e-15
      vertex 54.932 85 -1.307
      vertex 48.711 85 -1.916
    endloop
  endfacet
  facet normal 0 1 -2.22045e-16
    outer loop
      vertex 48.711 85 1.916
      vertex 54.388 85 3.863
      vertex 54.727 85 2.599
    endloop
  endfacet
  facet normal 0 1 -2.22045e-16
    outer loop
      vertex 49 85 1.11022e-15
      vertex 54.932 85 1.307
      vertex 55 85 0
    endloop
  endfacet
  facet normal 0 1 -2.22045e-16
    outer loop
      vertex 48.711 85 -1.916
      vertex 54.932 85 -1.307
      vertex 54.727 85 -2.599
    endloop
  endfacet
  facet normal 0 1 -2.22045e-16
    outer loop
      vertex 47.871 85 -3.662
      vertex 54.388 85 -3.863
      vertex 53.919 85 -5.084
    endloop
  endfacet
  facet normal 0 1 -2.22045e-16
    outer loop
      vertex 47.871 85 -3.662
      vertex 53.325 85 -6.25
      vertex 46.553 85 -5.082
    endloop
  endfacet
  facet normal 0 1 -2.22045e-16
    outer loop
      vertex 46.553 85 -5.082
      vertex 53.325 85 -6.25
      vertex 52.613 85 -7.347
    endloop
  endfacet
  facet normal 0 1 -2.22045e-16
    outer loop
      vertex 44.875 85 -6.051
      vertex 52.613 85 -7.347
      vertex 51.789 85 -8.364
    endloop
  endfacet
  facet normal 0 1 -2.22045e-16
    outer loop
      vertex 42.986 85 -6.482
      vertex 50.864 85 -9.289
      vertex 49.847 85 -10.113
    endloop
  endfacet
  facet normal 0 1 -2.22045e-16
    outer loop
      vertex 39.25 85 -5.629
      vertex 49.847 85 -10.113
      vertex 48.75 85 -10.825
    endloop
  endfacet
  facet normal 0 1 -2.22045e-16
    outer loop
      vertex 30.068 85 -1.307
      vertex 48.75 85 -10.825
      vertex 47.584 85 -11.419
    endloop
  endfacet
  facet normal 0 1 -2.22045e-16
    outer loop
      vertex 30.068 85 -1.307
      vertex 47.584 85 -11.419
      vertex 46.363 85 -11.888
    endloop
  endfacet
  facet normal 0 1 -2.22045e-16
    outer loop
      vertex 30.068 85 -1.307
      vertex 46.363 85 -11.888
      vertex 45.099 85 -12.227
    endloop
  endfacet
  facet normal 0 1 -2.22045e-16
    outer loop
      vertex 30.068 85 -1.307
      vertex 45.099 85 -12.227
      vertex 43.807 85 -12.432
    endloop
  endfacet
  facet normal 0 1 -2.22045e-16
    outer loop
      vertex 30.068 85 -1.307
      vertex 43.807 85 -12.432
      vertex 42.5 85 -12.5
    endloop
  endfacet
  facet normal 0 1 -2.22045e-16
    outer loop
      vertex 30.068 85 -1.307
      vertex 42.5 85 -12.5
      vertex 41.193 85 -12.432
    endloop
  endfacet
  facet normal 0 1 -2.22045e-16
    outer loop
      vertex 30.068 85 -1.307
      vertex 41.193 85 -12.432
      vertex 39.901 85 -12.227
    endloop
  endfacet
  facet normal 0 1 -2.22045e-16
    outer loop
      vertex 30.068 85 -1.307
      vertex 39.901 85 -12.227
      vertex 38.637 85 -11.888
    endloop
  endfacet
  facet normal 0 1 -2.22045e-16
    outer loop
      vertex 30.068 85 -1.307
      vertex 38.637 85 -11.888
      vertex 37.416 85 -11.419
    endloop
  endfacet
  facet normal 0 1 -2.22045e-16
    outer loop
      vertex 30.068 85 -1.307
      vertex 37.416 85 -11.419
      vertex 36.25 85 -10.825
    endloop
  endfacet
  facet normal 0 1 -2.22045e-16
    outer loop
      vertex 30.068 85 -1.307
      vertex 36.25 85 -10.825
      vertex 35.153 85 -10.113
    endloop
  endfacet
  facet normal 0 1 -2.22045e-16
    outer loop
      vertex 30.068 85 -1.307
      vertex 35.153 85 -10.113
      vertex 34.136 85 -9.289
    endloop
  endfacet
  facet normal 0 1 -2.22045e-16
    outer loop
      vertex 30.068 85 -1.307
      vertex 34.136 85 -9.289
      vertex 33.211 85 -8.364
    endloop
  endfacet
  facet normal 0 1 -2.22045e-16
    outer loop
      vertex 30.068 85 -1.307
      vertex 33.211 85 -8.364
      vertex 32.387 85 -7.347
    endloop
  endfacet
  facet normal 0 1 -2.22045e-16
    outer loop
      vertex 30.068 85 -1.307
      vertex 32.387 85 -7.347
      vertex 31.675 85 -6.25
    endloop
  endfacet
  facet normal 0 1 -2.22045e-16
    outer loop
      vertex 30.068 85 -1.307
      vertex 31.675 85 -6.25
      vertex 31.081 85 -5.084
    endloop
  endfacet
  facet normal 0 1 -2.22045e-16
    outer loop
      vertex 30.068 85 -1.307
      vertex 31.081 85 -5.084
      vertex 30.612 85 -3.863
    endloop
  endfacet
  facet normal 0 1 -2.22045e-16
    outer loop
      vertex 30.068 85 -1.307
      vertex 30.612 85 -3.863
      vertex 30.273 85 -2.599
    endloop
  endfacet
  facet normal 0 1 -2.22045e-16
    outer loop
      vertex 36.073 85 -0.969
      vertex 30.068 85 -1.307
      vertex 36.073 85 0.969
    endloop
  endfacet
  facet normal 0 1 -2.22045e-16
    outer loop
      vertex 48.711 85 -1.916
      vertex 54.388 85 -3.863
      vertex 47.871 85 -3.662
    endloop
  endfacet
  facet normal 0 1 -2.22045e-16
    outer loop
      vertex 36.644 85 -2.82
      vertex 30.068 85 -1.307
      vertex 36.073 85 -0.969
    endloop
  endfacet
  facet normal 0 1 -2.22045e-16
    outer loop
      vertex 37.735 85 -4.421
      vertex 30.068 85 -1.307
      vertex 36.644 85 -2.82
    endloop
  endfacet
  facet normal 0 1 -2.22045e-16
    outer loop
      vertex 39.25 85 -5.629
      vertex 30.068 85 -1.307
      vertex 37.735 85 -4.421
    endloop
  endfacet
  facet normal 0 1 -2.22045e-16
    outer loop
      vertex 41.054 85 -6.337
      vertex 49.847 85 -10.113
      vertex 39.25 85 -5.629
    endloop
  endfacet
  facet normal 0 1 -2.22045e-16
    outer loop
      vertex 30.068 85 -1.307
      vertex 39.25 85 -5.629
      vertex 48.75 85 -10.825
    endloop
  endfacet
  facet normal 0 1 -2.22045e-16
    outer loop
      vertex 42.986 85 -6.482
      vertex 49.847 85 -10.113
      vertex 41.054 85 -6.337
    endloop
  endfacet
  facet normal 0 1 -2.22045e-16
    outer loop
      vertex 44.875 85 -6.051
      vertex 50.864 85 -9.289
      vertex 42.986 85 -6.482
    endloop
  endfacet
  facet normal 0 1 -2.22045e-16
    outer loop
      vertex 47.871 85 -3.662
      vertex 53.919 85 -5.084
      vertex 53.325 85 -6.25
    endloop
  endfacet
  facet normal 0 1 -2.22045e-16
    outer loop
      vertex 46.553 85 -5.082
      vertex 52.613 85 -7.347
      vertex 44.875 85 -6.051
    endloop
  endfacet
  facet normal 0 1 -2.22045e-16
    outer loop
      vertex 44.875 85 -6.051
      vertex 51.789 85 -8.364
      vertex 50.864 85 -9.289
    endloop
  endfacet
  facet normal 0 1 -2.22045e-16
    outer loop
      vertex 48.711 85 1.916
      vertex 54.932 85 1.307
      vertex 49 85 1.11022e-15
    endloop
  endfacet
  facet normal 0 1 -2.22045e-16
    outer loop
      vertex 49 85 1.11022e-15
      vertex 55 85 0
      vertex 54.932 85 -1.307
    endloop
  endfacet
  facet normal 0 1 -2.22045e-16
    outer loop
      vertex 48.711 85 -1.916
      vertex 54.727 85 -2.599
      vertex 54.388 85 -3.863
    endloop
  endfacet
  facet normal 0 1 -2.22045e-16
    outer loop
      vertex 47.871 85 3.662
      vertex 53.919 85 5.084
      vertex 54.388 85 3.863
    endloop
  endfacet
  facet normal 0 1 -2.22045e-16
    outer loop
      vertex 46.553 85 5.082
      vertex 53.325 85 6.25
      vertex 47.871 85 3.662
    endloop
  endfacet
  facet normal 0 1 -2.22045e-16
    outer loop
      vertex 46.553 85 5.082
      vertex 52.613 85 7.347
      vertex 53.325 85 6.25
    endloop
  endfacet
  facet normal 0 1 -2.22045e-16
    outer loop
      vertex 47.871 85 3.662
      vertex 54.388 85 3.863
      vertex 48.711 85 1.916
    endloop
  endfacet
  facet normal 0 1 -2.22045e-16
    outer loop
      vertex 39.25 85 5.629
      vertex 47.584 85 11.419
      vertex 41.054 85 6.337
    endloop
  endfacet
  facet normal 0 1 -2.22045e-16
    outer loop
      vertex 30.068 85 -1.307
      vertex 46.363 85 11.888
      vertex 39.25 85 5.629
    endloop
  endfacet
  facet normal 0 1 -2.22045e-16
    outer loop
      vertex 36.644 85 2.82
      vertex 30.068 85 -1.307
      vertex 37.735 85 4.421
    endloop
  endfacet
  facet normal 0 1 -2.22045e-16
    outer loop
      vertex 30.068 85 -1.307
      vertex 39.25 85 5.629
      vertex 37.735 85 4.421
    endloop
  endfacet
  facet normal 0 1 -2.22045e-16
    outer loop
      vertex 36.073 85 0.969
      vertex 30.068 85 -1.307
      vertex 36.644 85 2.82
    endloop
  endfacet
  facet normal 0 1 -2.22045e-16
    outer loop
      vertex 41.054 85 6.337
      vertex 48.75 85 10.825
      vertex 42.986 85 6.482
    endloop
  endfacet
  facet normal 0 1 -2.22045e-16
    outer loop
      vertex 42.986 85 6.482
      vertex 49.847 85 10.113
      vertex 50.864 85 9.289
    endloop
  endfacet
  facet normal 0 1 -2.22045e-16
    outer loop
      vertex 42.986 85 6.482
      vertex 50.864 85 9.289
      vertex 44.875 85 6.051
    endloop
  endfacet
  facet normal 0 1 -2.22045e-16
    outer loop
      vertex 44.875 85 6.051
      vertex 51.789 85 8.364
      vertex 46.553 85 5.082
    endloop
  endfacet
  facet normal 0 1 -2.22045e-16
    outer loop
      vertex 37.872 6.5 2.456
      vertex 34.5 6.5 3.175
      vertex 39.537 6.5 3.217
    endloop
  endfacet
  facet normal 0 1 -2.22045e-16
    outer loop
      vertex 43.25 6.5 1.88738e-15
      vertex 45.5 6.5 3.175
      vertex 45.5 6.5 -3.175
    endloop
  endfacet
  facet normal 0 1 -2.22045e-16
    outer loop
      vertex 39.537 6.5 -3.217
      vertex 45.5 6.5 -3.175
      vertex 40 6.5 -6.351
    endloop
  endfacet
  facet normal 0 1 -2.22045e-16
    outer loop
      vertex 34.5 6.5 3.175
      vertex 40 6.5 -6.351
      vertex 34.5 6.5 -3.175
    endloop
  endfacet
  facet normal 0 1 -2.22045e-16
    outer loop
      vertex 43.25 6.5 1.88738e-15
      vertex 45.5 6.5 -3.175
      vertex 42.734 6.5 -1.757
    endloop
  endfacet
  facet normal 0 1 -2.22045e-16
    outer loop
      vertex 34.5 6.5 3.175
      vertex 36.882 6.5 -0.916
      vertex 40 6.5 -6.351
    endloop
  endfacet
  facet normal 0 1 -2.22045e-16
    outer loop
      vertex 36.882 6.5 -0.916
      vertex 37.872 6.5 -2.456
      vertex 40 6.5 -6.351
    endloop
  endfacet
  facet normal 0 1 -2.22045e-16
    outer loop
      vertex 41.35 6.5 -2.956
      vertex 45.5 6.5 -3.175
      vertex 39.537 6.5 -3.217
    endloop
  endfacet
  facet normal 0 1 -2.22045e-16
    outer loop
      vertex 37.872 6.5 -2.456
      vertex 39.537 6.5 -3.217
      vertex 40 6.5 -6.351
    endloop
  endfacet
  facet normal 0 1 -2.22045e-16
    outer loop
      vertex 42.734 6.5 1.757
      vertex 45.5 6.5 3.175
      vertex 43.25 6.5 1.88738e-15
    endloop
  endfacet
  facet normal 0 1 -2.22045e-16
    outer loop
      vertex 39.537 6.5 3.217
      vertex 45.5 6.5 3.175
      vertex 41.35 6.5 2.956
    endloop
  endfacet
  facet normal 0 1 -2.22045e-16
    outer loop
      vertex 41.35 6.5 2.956
      vertex 45.5 6.5 3.175
      vertex 42.734 6.5 1.757
    endloop
  endfacet
  facet normal 0 1 -2.22045e-16
    outer loop
      vertex 40 6.5 6.351
      vertex 45.5 6.5 3.175
      vertex 39.537 6.5 3.217
    endloop
  endfacet
  facet normal 0 1 -2.22045e-16
    outer loop
      vertex 40 6.5 6.351
      vertex 39.537 6.5 3.217
      vertex 34.5 6.5 3.175
    endloop
  endfacet
  facet normal 0 1 -2.22045e-16
    outer loop
      vertex 36.882 6.5 0.916
      vertex 34.5 6.5 3.175
      vertex 37.872 6.5 2.456
    endloop
  endfacet
  facet normal 0 1 -2.22045e-16
    outer loop
      vertex 34.5 6.5 3.175
      vertex 36.882 6.5 0.916
      vertex 36.882 6.5 -0.916
    endloop
  endfacet
  facet normal 0 1 -2.22045e-16
    outer loop
      vertex 42.734 6.5 -1.757
      vertex 45.5 6.5 -3.175
      vertex 41.35 6.5 -2.956
    endloop
  endfacet
  facet normal 0 1 0
    outer loop
      vertex 43.5 80 12.448
      vertex 42.5 80 12.5
      vertex 43.5 80 12.5
    endloop
  endfacet
endsolid OpenSCAD_Model
