solid PegBoardLock
facet normal 0.934271528403222 -0.356562352492672 0.0
outer loop
vertex 31.6184138015104 7.87904805604349 0.0
vertex 31.4046803671826 7.48357864226051 2.5
vertex 31.4046803671826 7.48357864226051 0.0
endloop
endfacet
facet normal 0.879737979803338 -0.475458817240297 0.0
outer loop
vertex 31.4046803671826 7.48357864226051 2.5
vertex 31.6184138015104 7.87904805604349 0.0
vertex 31.6184138015104 7.87904805604349 2.5
endloop
endfacet
facet normal 0.102605520107263 0.994722125642895 0.0
outer loop
vertex 27.8759167641785 13.9598282076535 2.5
vertex 29.0187225099129 13.687800520075 0.0
vertex 27.8759167641785 13.9598282076535 0.0
endloop
endfacet
facet normal 0.356562352492668 0.934271528403223 0.0
outer loop
vertex 29.0187225099129 13.687800520075 0.0
vertex 27.8759167641785 13.9598282076535 2.5
vertex 29.0187225099129 13.687800520075 2.5
endloop
endfacet
facet normal 0.233814916369074 0.972281124409665 0.0
outer loop
vertex 2.41419192369586 15.9835786422605 2.5
vertex 23.2058749246839 10.9835786422605 0.0
vertex 2.41419192369586 15.9835786422605 0.0
endloop
endfacet
facet normal 0.233814916369074 0.972281124409665 0.0
outer loop
vertex 23.2058749246839 10.9835786422605 0.0
vertex 2.41419192369586 15.9835786422605 2.5
vertex 23.2058749246839 10.9835786422605 2.5
endloop
endfacet
facet normal 0.0 -1.0 0.0
outer loop
vertex 27.4141919236959 11.9835786422605 2.5
vertex 26.7671443109396 11.8983932079832 0.0
vertex 27.4141919236959 11.9835786422605 0.0
endloop
endfacet
facet normal 0.258819045102527 -0.965925826289067 0.0
outer loop
vertex 26.7671443109396 11.8983932079832 0.0
vertex 27.4141919236959 11.9835786422605 2.5
vertex 26.7671443109396 11.8983932079832 2.5
endloop
endfacet
facet normal 0.258819045102527 -0.965925826289067 0.0
outer loop
vertex 26.7671443109396 11.8983932079832 2.5
vertex 26.1641919236959 11.6486421517216 0.0
vertex 26.7671443109396 11.8983932079832 0.0
endloop
endfacet
facet normal 0.5 -0.866025403784439 0.0
outer loop
vertex 26.1641919236959 11.6486421517216 0.0
vertex 26.7671443109396 11.8983932079832 2.5
vertex 26.1641919236959 11.6486421517216 2.5
endloop
endfacet
facet normal 0.965925826289069 -0.258819045102519 0.0
outer loop
vertex 24.9993773579732 10.1306262550168 0.0
vertex 24.9141919236959 9.48357864226051 2.5
vertex 24.9141919236959 9.48357864226051 0.0
endloop
endfacet
facet normal 1.0 0.0 0.0
outer loop
vertex 24.9141919236959 9.48357864226051 2.5
vertex 24.9993773579732 10.1306262550168 0.0
vertex 24.9993773579732 10.1306262550168 2.5
endloop
endfacet
facet normal 0.866025403784439 0.5 0.0
outer loop
vertex 25.2491284142348 8.23357864226051 0.0
vertex 25.6464249707295 7.71581168929414 2.5
vertex 25.6464249707295 7.71581168929414 0.0
endloop
endfacet
facet normal 0.707106781186547 0.707106781186549 0.0
outer loop
vertex 25.6464249707295 7.71581168929414 2.5
vertex 25.2491284142348 8.23357864226051 0.0
vertex 25.2491284142348 8.23357864226051 2.5
endloop
endfacet
facet normal 0.965925826289069 0.258819045102519 0.0
outer loop
vertex 24.9993773579732 8.8365310295042 0.0
vertex 25.2491284142348 8.23357864226051 2.5
vertex 25.2491284142348 8.23357864226051 0.0
endloop
endfacet
facet normal 0.866025403784439 0.5 0.0
outer loop
vertex 25.2491284142348 8.23357864226051 2.5
vertex 24.9993773579732 8.8365310295042 0.0
vertex 24.9993773579732 8.8365310295042 2.5
endloop
endfacet
facet normal -0.707106781186543 -0.707106781186552 0.0
outer loop
vertex 29.1819588766622 11.2513455952269 2.5
vertex 28.6641919236959 11.6486421517216 0.0
vertex 29.1819588766622 11.2513455952269 0.0
endloop
endfacet
facet normal -0.499999999999998 -0.86602540378444 0.0
outer loop
vertex 28.6641919236959 11.6486421517216 0.0
vertex 29.1819588766622 11.2513455952269 2.5
vertex 28.6641919236959 11.6486421517216 2.5
endloop
endfacet
facet normal -0.86602540378444 -0.499999999999997 0.0
outer loop
vertex 29.579255433157 10.7335786422605 2.5
vertex 29.8290064894185 10.1306262550168 0.0
vertex 29.8290064894185 10.1306262550168 2.5
endloop
endfacet
facet normal -0.965925826289071 -0.258819045102511 0.0
outer loop
vertex 29.8290064894185 10.1306262550168 0.0
vertex 29.579255433157 10.7335786422605 2.5
vertex 29.579255433157 10.7335786422605 0.0
endloop
endfacet
facet normal 0.707106781186547 0.707106781186549 0.0
outer loop
vertex 25.6464249707295 7.71581168929414 2.5
vertex 25.9490769700359 7.48357864226051 0.0
vertex 25.6464249707295 7.71581168929414 0.0
endloop
endfacet
facet normal 0.608761429008717 0.793353340291238 0.0
outer loop
vertex 25.9490769700359 7.48357864226051 0.0
vertex 25.6464249707295 7.71581168929414 2.5
vertex 25.9490769700359 7.48357864226051 2.5
endloop
endfacet
facet normal -0.102605520107263 0.994722125642894 0.0
outer loop
vertex 26.9524670832132 13.9598282076535 2.5
vertex 27.4141919236959 13.946844187625 0.0
vertex 26.9524670832132 13.9598282076535 0.0
endloop
endfacet
facet normal -1.70138557341731e-16 1.0 0.0
outer loop
vertex 27.4141919236959 13.946844187625 0.0
vertex 26.9524670832132 13.9598282076535 2.5
vertex 27.4141919236959 13.946844187625 2.5
endloop
endfacet
facet normal 0.912757390566835 0.408502075840041 0.0
outer loop
vertex 31.5216001812466 11.3218379835407 0.0
vertex 31.6225089227078 10.9835786422605 2.5
vertex 31.6225089227078 10.9835786422605 0.0
endloop
endfacet
facet normal 0.958268845031845 0.285868537340739 0.0
outer loop
vertex 31.6225089227078 10.9835786422605 2.5
vertex 31.5216001812466 11.3218379835407 0.0
vertex 31.5216001812466 11.3218379835407 2.5
endloop
endfacet
facet normal -0.934271528403222 -0.356562352492669 0.0
outer loop
vertex 23.2099700458814 7.87904805604349 2.5
vertex 23.4237034802092 7.48357864226051 0.0
vertex 23.4237034802092 7.48357864226051 2.5
endloop
endfacet
facet normal -0.879737979803338 -0.475458817240297 -0.0
outer loop
vertex 23.4237034802092 7.48357864226051 0.0
vertex 23.2099700458814 7.87904805604349 2.5
vertex 23.2099700458814 7.87904805604349 0.0
endloop
endfacet
facet normal -0.0 -1.0 -0.0
outer loop
vertex 31.4046803671826 7.48357864226051 2.5
vertex 28.8793068773558 7.48357864226051 0.0
vertex 31.4046803671826 7.48357864226051 0.0
endloop
endfacet
facet normal -0.0 -1.0 -0.0
outer loop
vertex 28.8793068773558 7.48357864226051 0.0
vertex 31.4046803671826 7.48357864226051 2.5
vertex 28.8793068773558 7.48357864226051 2.5
endloop
endfacet
facet normal 0.874157276121538 -0.485642931178632 0.0
outer loop
vertex 5.41419192369586 7.48357864226051 0.0
vertex 2.91419192369586 2.98357864226051 2.5
vertex 2.91419192369586 2.98357864226051 0.0
endloop
endfacet
facet normal 0.874157276121538 -0.485642931178632 0.0
outer loop
vertex 2.91419192369586 2.98357864226051 2.5
vertex 5.41419192369586 7.48357864226051 0.0
vertex 5.41419192369586 7.48357864226051 2.5
endloop
endfacet
facet normal -0.258819045102527 -0.965925826289067 0.0
outer loop
vertex 28.0612395364522 11.8983932079832 2.5
vertex 27.4141919236959 11.9835786422605 0.0
vertex 28.0612395364522 11.8983932079832 0.0
endloop
endfacet
facet normal 0.0 -1.0 0.0
outer loop
vertex 27.4141919236959 11.9835786422605 0.0
vertex 28.0612395364522 11.8983932079832 2.5
vertex 27.4141919236959 11.9835786422605 2.5
endloop
endfacet
facet normal 0.972819432123122 -0.231565007036136 0.0
outer loop
vertex 31.8904414890889 9.02185380177783 0.0
vertex 31.6184138015104 7.87904805604349 2.5
vertex 31.6184138015104 7.87904805604349 0.0
endloop
endfacet
facet normal 0.934271528403222 -0.356562352492672 0.0
outer loop
vertex 31.6184138015104 7.87904805604349 2.5
vertex 31.8904414890889 9.02185380177783 0.0
vertex 31.8904414890889 9.02185380177783 2.5
endloop
endfacet
facet normal -0.0 -0.0 1.0
outer loop
vertex 5.41419192369586 7.48357864226051 2.5
vertex 4.41419192369586 6.95271164226051 2.5
vertex 2.91419192369586 2.98357864226051 2.5
endloop
endfacet
facet normal -0.0 -0.0 1.0
outer loop
vertex 2.41419192369586 15.9835786422605 2.5
vertex 4.41419192369586 13.4835786422605 2.5
vertex 23.2058749246839 10.9835786422605 2.5
endloop
endfacet
facet normal -0.0 -0.0 1.0
outer loop
vertex 4.41419192369586 13.4835786422605 2.5
vertex 2.41419192369586 15.9835786422605 2.5
vertex 2.91419192369586 2.98357864226051 2.5
endloop
endfacet
facet normal -0.0 -0.0 1.0
outer loop
vertex 4.41419192369586 13.4835786422605 2.5
vertex 2.91419192369586 2.98357864226051 2.5
vertex 4.41419192369586 6.95271164226051 2.5
endloop
endfacet
facet normal -0.0 -0.0 1.0
outer loop
vertex 23.2058749246839 10.9835786422605 2.5
vertex 4.41419192369586 13.4835786422605 2.5
vertex 22.9379423583028 9.02185380177783 2.5
endloop
endfacet
facet normal -0.0 -0.0 1.0
outer loop
vertex 23.2058749246839 10.9835786422605 2.5
vertex 22.9379423583028 9.02185380177783 2.5
vertex 23.2099700458814 7.87904805604349 2.5
endloop
endfacet
facet normal -0.0 -0.0 1.0
outer loop
vertex 23.2058749246839 10.9835786422605 2.5
vertex 23.2099700458814 7.87904805604349 2.5
vertex 23.3067836661451 11.3218379835407 2.5
endloop
endfacet
facet normal -0.0 -0.0 1.0
outer loop
vertex 23.3067836661451 11.3218379835407 2.5
vertex 23.2099700458814 7.87904805604349 2.5
vertex 23.4237034802092 7.48357864226051 2.5
endloop
endfacet
facet normal -0.0 -0.0 1.0
outer loop
vertex 23.3067836661451 11.3218379835407 2.5
vertex 23.4237034802092 7.48357864226051 2.5
vertex 23.9225167359755 12.3222762984857 2.5
endloop
endfacet
facet normal -0.0 -0.0 1.0
outer loop
vertex 23.9225167359755 12.3222762984857 2.5
vertex 23.4237034802092 7.48357864226051 2.5
vertex 24.9993773579732 8.8365310295042 2.5
endloop
endfacet
facet normal -0.0 -0.0 1.0
outer loop
vertex 24.9993773579732 8.8365310295042 2.5
vertex 23.4237034802092 7.48357864226051 2.5
vertex 25.2491284142348 8.23357864226051 2.5
endloop
endfacet
facet normal -0.0 -0.0 1.0
outer loop
vertex 25.2491284142348 8.23357864226051 2.5
vertex 23.4237034802092 7.48357864226051 2.5
vertex 25.6464249707295 7.71581168929414 2.5
endloop
endfacet
facet normal -0.0 -0.0 1.0
outer loop
vertex 25.6464249707295 7.71581168929414 2.5
vertex 23.4237034802092 7.48357864226051 2.5
vertex 25.9490769700359 7.48357864226051 2.5
endloop
endfacet
facet normal -0.0 -0.0 1.0
outer loop
vertex 23.9225167359755 12.3222762984857 2.5
vertex 24.9993773579732 8.8365310295042 2.5
vertex 24.9141919236959 9.48357864226051 2.5
endloop
endfacet
facet normal -0.0 -0.0 1.0
outer loop
vertex 23.9225167359755 12.3222762984857 2.5
vertex 24.9141919236959 9.48357864226051 2.5
vertex 24.776201699583 13.1292620593286 2.5
endloop
endfacet
facet normal -0.0 -0.0 1.0
outer loop
vertex 51.9141919236958 2.98357864226051 2.5
vertex 50.4141919236958 6.95271164226051 2.5
vertex 49.4141919236959 7.48357864226051 2.5
endloop
endfacet
facet normal -0.0 -0.0 1.0
outer loop
vertex 50.4141919236958 6.95271164226051 2.5
vertex 51.9141919236958 2.98357864226051 2.5
vertex 50.4141919236958 13.4835786422605 2.5
endloop
endfacet
facet normal -0.0 -0.0 1.0
outer loop
vertex 31.4046803671826 7.48357864226051 2.5
vertex 29.1819588766622 7.71581168929414 2.5
vertex 28.8793068773558 7.48357864226051 2.5
endloop
endfacet
facet normal -0.0 -0.0 1.0
outer loop
vertex 29.1819588766622 7.71581168929414 2.5
vertex 31.4046803671826 7.48357864226051 2.5
vertex 29.579255433157 8.23357864226051 2.5
endloop
endfacet
facet normal -0.0 -0.0 1.0
outer loop
vertex 29.579255433157 8.23357864226051 2.5
vertex 31.4046803671826 7.48357864226051 2.5
vertex 29.8290064894185 8.8365310295042 2.5
endloop
endfacet
facet normal -0.0 -0.0 1.0
outer loop
vertex 29.8290064894185 8.8365310295042 2.5
vertex 31.4046803671826 7.48357864226051 2.5
vertex 29.9141919236959 9.48357864226051 2.5
endloop
endfacet
facet normal -0.0 -0.0 1.0
outer loop
vertex 29.9141919236959 9.48357864226051 2.5
vertex 31.4046803671826 7.48357864226051 2.5
vertex 30.0521821478087 13.1292620593286 2.5
endloop
endfacet
facet normal -0.0 -0.0 1.0
outer loop
vertex 30.0521821478087 13.1292620593286 2.5
vertex 31.4046803671826 7.48357864226051 2.5
vertex 30.9058671114162 12.3222762984857 2.5
endloop
endfacet
facet normal -0.0 -0.0 1.0
outer loop
vertex 30.9058671114162 12.3222762984857 2.5
vertex 31.4046803671826 7.48357864226051 2.5
vertex 31.5216001812466 11.3218379835407 2.5
endloop
endfacet
facet normal -0.0 -0.0 1.0
outer loop
vertex 31.5216001812466 11.3218379835407 2.5
vertex 31.4046803671826 7.48357864226051 2.5
vertex 31.6184138015104 7.87904805604349 2.5
endloop
endfacet
facet normal -0.0 -0.0 1.0
outer loop
vertex 31.5216001812466 11.3218379835407 2.5
vertex 31.6184138015104 7.87904805604349 2.5
vertex 31.6225089227078 10.9835786422605 2.5
endloop
endfacet
facet normal -0.0 -0.0 1.0
outer loop
vertex 31.6225089227078 10.9835786422605 2.5
vertex 31.6184138015104 7.87904805604349 2.5
vertex 31.8904414890889 9.02185380177783 2.5
endloop
endfacet
facet normal -0.0 -0.0 1.0
outer loop
vertex 31.6225089227078 10.9835786422605 2.5
vertex 31.8904414890889 9.02185380177783 2.5
vertex 52.4141919236958 15.9835786422605 2.5
endloop
endfacet
facet normal -0.0 -0.0 1.0
outer loop
vertex 52.4141919236958 15.9835786422605 2.5
vertex 31.8904414890889 9.02185380177783 2.5
vertex 50.4141919236958 13.4835786422605 2.5
endloop
endfacet
facet normal -0.0 -0.0 1.0
outer loop
vertex 52.4141919236958 15.9835786422605 2.5
vertex 50.4141919236958 13.4835786422605 2.5
vertex 51.9141919236958 2.98357864226051 2.5
endloop
endfacet
facet normal -0.0 -0.0 1.0
outer loop
vertex 24.776201699583 13.1292620593286 2.5
vertex 24.9993773579732 10.1306262550168 2.5
vertex 25.8096613374788 13.687800520075 2.5
endloop
endfacet
facet normal -0.0 -0.0 1.0
outer loop
vertex 24.9993773579732 10.1306262550168 2.5
vertex 24.776201699583 13.1292620593286 2.5
vertex 24.9141919236959 9.48357864226051 2.5
endloop
endfacet
facet normal -0.0 -0.0 1.0
outer loop
vertex 25.8096613374788 13.687800520075 2.5
vertex 24.9993773579732 10.1306262550168 2.5
vertex 25.2491284142348 10.7335786422605 2.5
endloop
endfacet
facet normal -0.0 -0.0 1.0
outer loop
vertex 25.8096613374788 13.687800520075 2.5
vertex 25.2491284142348 10.7335786422605 2.5
vertex 25.6464249707295 11.2513455952269 2.5
endloop
endfacet
facet normal -0.0 -0.0 1.0
outer loop
vertex 25.8096613374788 13.687800520075 2.5
vertex 25.6464249707295 11.2513455952269 2.5
vertex 26.1641919236959 11.6486421517216 2.5
endloop
endfacet
facet normal -0.0 -0.0 1.0
outer loop
vertex 25.8096613374788 13.687800520075 2.5
vertex 26.1641919236959 11.6486421517216 2.5
vertex 26.9524670832132 13.9598282076535 2.5
endloop
endfacet
facet normal -0.0 -0.0 1.0
outer loop
vertex 26.9524670832132 13.9598282076535 2.5
vertex 26.1641919236959 11.6486421517216 2.5
vertex 26.7671443109396 11.8983932079832 2.5
endloop
endfacet
facet normal -0.0 -0.0 1.0
outer loop
vertex 26.9524670832132 13.9598282076535 2.5
vertex 26.7671443109396 11.8983932079832 2.5
vertex 27.4141919236959 11.9835786422605 2.5
endloop
endfacet
facet normal -0.0 -0.0 1.0
outer loop
vertex 26.9524670832132 13.9598282076535 2.5
vertex 27.4141919236959 11.9835786422605 2.5
vertex 27.4141919236959 13.946844187625 2.5
endloop
endfacet
facet normal -0.0 -0.0 1.0
outer loop
vertex 27.4141919236959 13.946844187625 2.5
vertex 27.4141919236959 11.9835786422605 2.5
vertex 28.0612395364522 11.8983932079832 2.5
endloop
endfacet
facet normal -0.0 -0.0 1.0
outer loop
vertex 27.4141919236959 13.946844187625 2.5
vertex 28.0612395364522 11.8983932079832 2.5
vertex 27.8759167641785 13.9598282076535 2.5
endloop
endfacet
facet normal -0.0 -0.0 1.0
outer loop
vertex 27.8759167641785 13.9598282076535 2.5
vertex 28.0612395364522 11.8983932079832 2.5
vertex 29.0187225099129 13.687800520075 2.5
endloop
endfacet
facet normal -0.0 -0.0 1.0
outer loop
vertex 29.0187225099129 13.687800520075 2.5
vertex 28.0612395364522 11.8983932079832 2.5
vertex 28.6641919236959 11.6486421517216 2.5
endloop
endfacet
facet normal -0.0 -0.0 1.0
outer loop
vertex 29.0187225099129 13.687800520075 2.5
vertex 28.6641919236959 11.6486421517216 2.5
vertex 29.1819588766622 11.2513455952269 2.5
endloop
endfacet
facet normal -0.0 -0.0 1.0
outer loop
vertex 29.0187225099129 13.687800520075 2.5
vertex 29.1819588766622 11.2513455952269 2.5
vertex 30.0521821478087 13.1292620593286 2.5
endloop
endfacet
facet normal -0.0 -0.0 1.0
outer loop
vertex 30.0521821478087 13.1292620593286 2.5
vertex 29.1819588766622 11.2513455952269 2.5
vertex 29.579255433157 10.7335786422605 2.5
endloop
endfacet
facet normal -0.0 -0.0 1.0
outer loop
vertex 30.0521821478087 13.1292620593286 2.5
vertex 29.579255433157 10.7335786422605 2.5
vertex 29.8290064894185 10.1306262550168 2.5
endloop
endfacet
facet normal -0.0 -0.0 1.0
outer loop
vertex 30.0521821478087 13.1292620593286 2.5
vertex 29.8290064894185 10.1306262550168 2.5
vertex 29.9141919236959 9.48357864226051 2.5
endloop
endfacet
facet normal 0.5 -0.866025403784439 0.0
outer loop
vertex 26.1641919236959 11.6486421517216 2.5
vertex 25.6464249707295 11.2513455952269 0.0
vertex 26.1641919236959 11.6486421517216 0.0
endloop
endfacet
facet normal 0.707106781186545 -0.70710678118655 0.0
outer loop
vertex 25.6464249707295 11.2513455952269 0.0
vertex 26.1641919236959 11.6486421517216 2.5
vertex 25.6464249707295 11.2513455952269 2.5
endloop
endfacet
facet normal -0.0 -1.0 -0.0
outer loop
vertex 25.9490769700359 7.48357864226051 2.5
vertex 23.4237034802092 7.48357864226051 0.0
vertex 25.9490769700359 7.48357864226051 0.0
endloop
endfacet
facet normal -0.0 -1.0 -0.0
outer loop
vertex 23.4237034802092 7.48357864226051 0.0
vertex 25.9490769700359 7.48357864226051 2.5
vertex 23.4237034802092 7.48357864226051 2.5
endloop
endfacet
facet normal 1.0 0.0 0.0
outer loop
vertex 24.9141919236959 9.48357864226051 0.0
vertex 24.9993773579732 8.8365310295042 2.5
vertex 24.9993773579732 8.8365310295042 0.0
endloop
endfacet
facet normal 0.965925826289069 0.258819045102519 0.0
outer loop
vertex 24.9993773579732 8.8365310295042 2.5
vertex 24.9141919236959 9.48357864226051 0.0
vertex 24.9141919236959 9.48357864226051 2.5
endloop
endfacet
facet normal -0.233814916369074 0.972281124409665 0.0
outer loop
vertex 31.6225089227078 10.9835786422605 2.5
vertex 52.4141919236958 15.9835786422605 0.0
vertex 31.6225089227078 10.9835786422605 0.0
endloop
endfacet
facet normal -0.233814916369074 0.972281124409665 0.0
outer loop
vertex 52.4141919236958 15.9835786422605 0.0
vertex 31.6225089227078 10.9835786422605 2.5
vertex 52.4141919236958 15.9835786422605 2.5
endloop
endfacet
facet normal 0.707106781186545 -0.70710678118655 0.0
outer loop
vertex 25.6464249707295 11.2513455952269 0.0
vertex 25.2491284142348 10.7335786422605 2.5
vertex 25.2491284142348 10.7335786422605 0.0
endloop
endfacet
facet normal 0.866025403784439 -0.5 0.0
outer loop
vertex 25.2491284142348 10.7335786422605 2.5
vertex 25.6464249707295 11.2513455952269 0.0
vertex 25.6464249707295 11.2513455952269 2.5
endloop
endfacet
facet normal -1.0 0.0 0.0
outer loop
vertex 50.4141919236958 13.4835786422605 2.5
vertex 50.4141919236958 6.95271164226051 0.0
vertex 50.4141919236958 6.95271164226051 2.5
endloop
endfacet
facet normal -1.0 0.0 0.0
outer loop
vertex 50.4141919236958 6.95271164226051 0.0
vertex 50.4141919236958 13.4835786422605 2.5
vertex 50.4141919236958 13.4835786422605 0.0
endloop
endfacet
facet normal 0.586220049802853 0.81015187045957 0.0
outer loop
vertex 30.0521821478087 13.1292620593286 2.5
vertex 30.9058671114162 12.3222762984857 0.0
vertex 30.0521821478087 13.1292620593286 0.0
endloop
endfacet
facet normal 0.775927819493405 0.63082170138337 0.0
outer loop
vertex 30.9058671114162 12.3222762984857 0.0
vertex 30.0521821478087 13.1292620593286 2.5
vertex 30.9058671114162 12.3222762984857 2.5
endloop
endfacet
facet normal 0.999261174631314 -0.0384331221012043 0.0
outer loop
vertex 52.4141919236958 15.9835786422605 0.0
vertex 51.9141919236958 2.98357864226051 2.5
vertex 51.9141919236958 2.98357864226051 0.0
endloop
endfacet
facet normal 0.999261174631314 -0.0384331221012043 0.0
outer loop
vertex 51.9141919236958 2.98357864226051 2.5
vertex 52.4141919236958 15.9835786422605 0.0
vertex 52.4141919236958 15.9835786422605 2.5
endloop
endfacet
facet normal -0.499999999999998 -0.86602540378444 0.0
outer loop
vertex 28.6641919236959 11.6486421517216 2.5
vertex 28.0612395364522 11.8983932079832 0.0
vertex 28.6641919236959 11.6486421517216 0.0
endloop
endfacet
facet normal -0.258819045102527 -0.965925826289067 0.0
outer loop
vertex 28.0612395364522 11.8983932079832 0.0
vertex 28.6641919236959 11.6486421517216 2.5
vertex 28.0612395364522 11.8983932079832 2.5
endloop
endfacet
facet normal -0.965925826289071 0.258819045102511 0.0
outer loop
vertex 29.8290064894185 8.8365310295042 2.5
vertex 29.579255433157 8.23357864226051 0.0
vertex 29.579255433157 8.23357864226051 2.5
endloop
endfacet
facet normal -0.866025403784439 0.499999999999999 0.0
outer loop
vertex 29.579255433157 8.23357864226051 0.0
vertex 29.8290064894185 8.8365310295042 2.5
vertex 29.8290064894185 8.8365310295042 0.0
endloop
endfacet
facet normal -0.999261174631314 -0.0384331221012044 -0.0
outer loop
vertex 2.41419192369586 15.9835786422605 2.5
vertex 2.91419192369586 2.98357864226051 0.0
vertex 2.91419192369586 2.98357864226051 2.5
endloop
endfacet
facet normal -0.999261174631314 -0.0384331221012044 -0.0
outer loop
vertex 2.91419192369586 2.98357864226051 0.0
vertex 2.41419192369586 15.9835786422605 2.5
vertex 2.41419192369586 15.9835786422605 0.0
endloop
endfacet
facet normal 1.0 0.0 0.0
outer loop
vertex 4.41419192369586 13.4835786422605 0.0
vertex 4.41419192369586 6.95271164226051 2.5
vertex 4.41419192369586 6.95271164226051 0.0
endloop
endfacet
facet normal 1.0 0.0 0.0
outer loop
vertex 4.41419192369586 6.95271164226051 2.5
vertex 4.41419192369586 13.4835786422605 0.0
vertex 4.41419192369586 13.4835786422605 2.5
endloop
endfacet
facet normal 0.234168107460269 -0.972196120877097 0.0
outer loop
vertex 50.4141919236958 13.4835786422605 2.5
vertex 31.8904414890889 9.02185380177783 0.0
vertex 50.4141919236958 13.4835786422605 0.0
endloop
endfacet
facet normal 0.234168107460269 -0.972196120877097 0.0
outer loop
vertex 31.8904414890889 9.02185380177783 0.0
vertex 50.4141919236958 13.4835786422605 2.5
vertex 31.8904414890889 9.02185380177783 2.5
endloop
endfacet
facet normal -0.874157276121538 -0.485642931178631 -0.0
outer loop
vertex 49.4141919236959 7.48357864226051 2.5
vertex 51.9141919236958 2.98357864226051 0.0
vertex 51.9141919236958 2.98357864226051 2.5
endloop
endfacet
facet normal -0.874157276121538 -0.485642931178631 -0.0
outer loop
vertex 51.9141919236958 2.98357864226051 0.0
vertex 49.4141919236959 7.48357864226051 2.5
vertex 49.4141919236959 7.48357864226051 0.0
endloop
endfacet
facet normal -0.468891377246807 0.883255838556186 0.0
outer loop
vertex 4.41419192369586 6.95271164226051 2.5
vertex 5.41419192369586 7.48357864226051 0.0
vertex 4.41419192369586 6.95271164226051 0.0
endloop
endfacet
facet normal -0.468891377246807 0.883255838556186 0.0
outer loop
vertex 5.41419192369586 7.48357864226051 0.0
vertex 4.41419192369586 6.95271164226051 2.5
vertex 5.41419192369586 7.48357864226051 2.5
endloop
endfacet
facet normal 0.468891377246808 0.883255838556186 0.0
outer loop
vertex 49.4141919236959 7.48357864226051 2.5
vertex 50.4141919236958 6.95271164226051 0.0
vertex 49.4141919236959 7.48357864226051 0.0
endloop
endfacet
facet normal 0.468891377246808 0.883255838556186 0.0
outer loop
vertex 50.4141919236958 6.95271164226051 0.0
vertex 49.4141919236959 7.48357864226051 2.5
vertex 50.4141919236958 6.95271164226051 2.5
endloop
endfacet
facet normal -0.608761429008717 0.793353340291238 0.0
outer loop
vertex 28.8793068773558 7.48357864226051 2.5
vertex 29.1819588766622 7.71581168929414 0.0
vertex 28.8793068773558 7.48357864226051 0.0
endloop
endfacet
facet normal -0.707106781186544 0.707106781186551 0.0
outer loop
vertex 29.1819588766622 7.71581168929414 0.0
vertex 28.8793068773558 7.48357864226051 2.5
vertex 29.1819588766622 7.71581168929414 2.5
endloop
endfacet
facet normal -0.965925826289071 -0.258819045102511 0.0
outer loop
vertex 29.8290064894185 10.1306262550168 2.5
vertex 29.9141919236959 9.48357864226051 0.0
vertex 29.9141919236959 9.48357864226051 2.5
endloop
endfacet
facet normal -1.0 0.0 0.0
outer loop
vertex 29.9141919236959 9.48357864226051 0.0
vertex 29.8290064894185 10.1306262550168 2.5
vertex 29.8290064894185 10.1306262550168 0.0
endloop
endfacet
facet normal -1.70138557341731e-16 1.0 0.0
outer loop
vertex 27.4141919236959 13.946844187625 2.5
vertex 27.8759167641785 13.9598282076535 0.0
vertex 27.4141919236959 13.946844187625 0.0
endloop
endfacet
facet normal 0.102605520107263 0.994722125642895 0.0
outer loop
vertex 27.8759167641785 13.9598282076535 0.0
vertex 27.4141919236959 13.946844187625 2.5
vertex 27.8759167641785 13.9598282076535 2.5
endloop
endfacet
facet normal -0.234168107460269 -0.972196120877098 -0.0
outer loop
vertex 22.9379423583028 9.02185380177783 2.5
vertex 4.41419192369586 13.4835786422605 0.0
vertex 22.9379423583028 9.02185380177783 0.0
endloop
endfacet
facet normal -0.234168107460269 -0.972196120877098 -0.0
outer loop
vertex 4.41419192369586 13.4835786422605 0.0
vertex 22.9379423583028 9.02185380177783 2.5
vertex 4.41419192369586 13.4835786422605 2.5
endloop
endfacet
facet normal -0.972819432123123 -0.231565007036132 -0.0
outer loop
vertex 22.9379423583028 9.02185380177783 2.5
vertex 23.2099700458814 7.87904805604349 0.0
vertex 23.2099700458814 7.87904805604349 2.5
endloop
endfacet
facet normal -0.934271528403222 -0.356562352492669 0.0
outer loop
vertex 23.2099700458814 7.87904805604349 0.0
vertex 22.9379423583028 9.02185380177783 2.5
vertex 22.9379423583028 9.02185380177783 0.0
endloop
endfacet
facet normal 0.866025403784439 -0.5 0.0
outer loop
vertex 25.2491284142348 10.7335786422605 0.0
vertex 24.9993773579732 10.1306262550168 2.5
vertex 24.9993773579732 10.1306262550168 0.0
endloop
endfacet
facet normal 0.965925826289069 -0.258819045102519 0.0
outer loop
vertex 24.9993773579732 10.1306262550168 2.5
vertex 25.2491284142348 10.7335786422605 0.0
vertex 25.2491284142348 10.7335786422605 2.5
endloop
endfacet
facet normal -0.707106781186543 -0.707106781186552 0.0
outer loop
vertex 29.1819588766622 11.2513455952269 2.5
vertex 29.579255433157 10.7335786422605 0.0
vertex 29.579255433157 10.7335786422605 2.5
endloop
endfacet
facet normal -0.86602540378444 -0.499999999999997 0.0
outer loop
vertex 29.579255433157 10.7335786422605 0.0
vertex 29.1819588766622 11.2513455952269 2.5
vertex 29.1819588766622 11.2513455952269 0.0
endloop
endfacet
facet normal 0.356562352492668 0.934271528403223 0.0
outer loop
vertex 29.0187225099129 13.687800520075 2.5
vertex 30.0521821478087 13.1292620593286 0.0
vertex 29.0187225099129 13.687800520075 0.0
endloop
endfacet
facet normal 0.586220049802853 0.81015187045957 0.0
outer loop
vertex 30.0521821478087 13.1292620593286 0.0
vertex 29.0187225099129 13.687800520075 2.5
vertex 30.0521821478087 13.1292620593286 2.5
endloop
endfacet
facet normal 0.775927819493405 0.63082170138337 0.0
outer loop
vertex 30.9058671114162 12.3222762984857 0.0
vertex 31.5216001812466 11.3218379835407 2.5
vertex 31.5216001812466 11.3218379835407 0.0
endloop
endfacet
facet normal 0.912757390566835 0.408502075840041 0.0
outer loop
vertex 31.5216001812466 11.3218379835407 2.5
vertex 30.9058671114162 12.3222762984857 0.0
vertex 30.9058671114162 12.3222762984857 2.5
endloop
endfacet
facet normal -0.356562352492668 0.934271528403223 0.0
outer loop
vertex 25.8096613374788 13.687800520075 2.5
vertex 26.9524670832132 13.9598282076535 0.0
vertex 25.8096613374788 13.687800520075 0.0
endloop
endfacet
facet normal -0.102605520107263 0.994722125642894 0.0
outer loop
vertex 26.9524670832132 13.9598282076535 0.0
vertex 25.8096613374788 13.687800520075 2.5
vertex 26.9524670832132 13.9598282076535 2.5
endloop
endfacet
facet normal -0.866025403784439 0.499999999999999 0.0
outer loop
vertex 29.579255433157 8.23357864226051 2.5
vertex 29.1819588766622 7.71581168929414 0.0
vertex 29.1819588766622 7.71581168929414 2.5
endloop
endfacet
facet normal -0.707106781186544 0.707106781186551 0.0
outer loop
vertex 29.1819588766622 7.71581168929414 0.0
vertex 29.579255433157 8.23357864226051 2.5
vertex 29.579255433157 8.23357864226051 0.0
endloop
endfacet
facet normal -0.775927819493406 0.630821701383369 0.0
outer loop
vertex 23.9225167359755 12.3222762984857 2.5
vertex 24.776201699583 13.1292620593286 0.0
vertex 23.9225167359755 12.3222762984857 0.0
endloop
endfacet
facet normal -0.586220049802853 0.81015187045957 0.0
outer loop
vertex 24.776201699583 13.1292620593286 0.0
vertex 23.9225167359755 12.3222762984857 2.5
vertex 24.776201699583 13.1292620593286 2.5
endloop
endfacet
facet normal -0.912757390566834 0.408502075840043 0.0
outer loop
vertex 23.3067836661451 11.3218379835407 2.5
vertex 23.2058749246839 10.9835786422605 0.0
vertex 23.2058749246839 10.9835786422605 2.5
endloop
endfacet
facet normal -0.958268845031843 0.285868537340746 0.0
outer loop
vertex 23.2058749246839 10.9835786422605 0.0
vertex 23.3067836661451 11.3218379835407 2.5
vertex 23.3067836661451 11.3218379835407 0.0
endloop
endfacet
facet normal -0.775927819493406 0.630821701383369 0.0
outer loop
vertex 23.9225167359755 12.3222762984857 2.5
vertex 23.3067836661451 11.3218379835407 0.0
vertex 23.3067836661451 11.3218379835407 2.5
endloop
endfacet
facet normal -0.912757390566834 0.408502075840043 0.0
outer loop
vertex 23.3067836661451 11.3218379835407 0.0
vertex 23.9225167359755 12.3222762984857 2.5
vertex 23.9225167359755 12.3222762984857 0.0
endloop
endfacet
facet normal -1.0 0.0 0.0
outer loop
vertex 29.9141919236959 9.48357864226051 2.5
vertex 29.8290064894185 8.8365310295042 0.0
vertex 29.8290064894185 8.8365310295042 2.5
endloop
endfacet
facet normal -0.965925826289071 0.258819045102511 0.0
outer loop
vertex 29.8290064894185 8.8365310295042 0.0
vertex 29.9141919236959 9.48357864226051 2.5
vertex 29.9141919236959 9.48357864226051 0.0
endloop
endfacet
facet normal -0.586220049802853 0.81015187045957 0.0
outer loop
vertex 24.776201699583 13.1292620593286 2.5
vertex 25.8096613374788 13.687800520075 0.0
vertex 24.776201699583 13.1292620593286 0.0
endloop
endfacet
facet normal -0.356562352492668 0.934271528403223 0.0
outer loop
vertex 25.8096613374788 13.687800520075 0.0
vertex 24.776201699583 13.1292620593286 2.5
vertex 25.8096613374788 13.687800520075 2.5
endloop
endfacet
facet normal 0.0 0.0 -1.0
outer loop
vertex 24.776201699583 13.1292620593286 0.0
vertex 24.9993773579732 10.1306262550168 0.0
vertex 24.9141919236959 9.48357864226051 0.0
endloop
endfacet
facet normal 0.0 0.0 -1.0
outer loop
vertex 24.9993773579732 10.1306262550168 0.0
vertex 24.776201699583 13.1292620593286 0.0
vertex 25.8096613374788 13.687800520075 0.0
endloop
endfacet
facet normal 0.0 0.0 -1.0
outer loop
vertex 24.9993773579732 10.1306262550168 0.0
vertex 25.8096613374788 13.687800520075 0.0
vertex 25.2491284142348 10.7335786422605 0.0
endloop
endfacet
facet normal 0.0 0.0 -1.0
outer loop
vertex 25.2491284142348 10.7335786422605 0.0
vertex 25.8096613374788 13.687800520075 0.0
vertex 25.6464249707295 11.2513455952269 0.0
endloop
endfacet
facet normal 0.0 0.0 -1.0
outer loop
vertex 25.6464249707295 11.2513455952269 0.0
vertex 25.8096613374788 13.687800520075 0.0
vertex 26.1641919236959 11.6486421517216 0.0
endloop
endfacet
facet normal 0.0 0.0 -1.0
outer loop
vertex 26.1641919236959 11.6486421517216 0.0
vertex 25.8096613374788 13.687800520075 0.0
vertex 26.9524670832132 13.9598282076535 0.0
endloop
endfacet
facet normal 0.0 0.0 -1.0
outer loop
vertex 26.1641919236959 11.6486421517216 0.0
vertex 26.9524670832132 13.9598282076535 0.0
vertex 26.7671443109396 11.8983932079832 0.0
endloop
endfacet
facet normal 0.0 0.0 -1.0
outer loop
vertex 26.7671443109396 11.8983932079832 0.0
vertex 26.9524670832132 13.9598282076535 0.0
vertex 27.4141919236959 11.9835786422605 0.0
endloop
endfacet
facet normal 0.0 0.0 -1.0
outer loop
vertex 27.4141919236959 11.9835786422605 0.0
vertex 26.9524670832132 13.9598282076535 0.0
vertex 27.4141919236959 13.946844187625 0.0
endloop
endfacet
facet normal 0.0 0.0 -1.0
outer loop
vertex 27.4141919236959 11.9835786422605 0.0
vertex 27.4141919236959 13.946844187625 0.0
vertex 27.8759167641785 13.9598282076535 0.0
endloop
endfacet
facet normal 0.0 0.0 -1.0
outer loop
vertex 27.4141919236959 11.9835786422605 0.0
vertex 27.8759167641785 13.9598282076535 0.0
vertex 28.0612395364522 11.8983932079832 0.0
endloop
endfacet
facet normal 0.0 0.0 -1.0
outer loop
vertex 28.0612395364522 11.8983932079832 0.0
vertex 27.8759167641785 13.9598282076535 0.0
vertex 29.0187225099129 13.687800520075 0.0
endloop
endfacet
facet normal 0.0 0.0 -1.0
outer loop
vertex 28.0612395364522 11.8983932079832 0.0
vertex 29.0187225099129 13.687800520075 0.0
vertex 28.6641919236959 11.6486421517216 0.0
endloop
endfacet
facet normal 0.0 0.0 -1.0
outer loop
vertex 28.6641919236959 11.6486421517216 0.0
vertex 29.0187225099129 13.687800520075 0.0
vertex 29.1819588766622 11.2513455952269 0.0
endloop
endfacet
facet normal 0.0 0.0 -1.0
outer loop
vertex 29.1819588766622 11.2513455952269 0.0
vertex 29.0187225099129 13.687800520075 0.0
vertex 30.0521821478087 13.1292620593286 0.0
endloop
endfacet
facet normal 0.0 0.0 -1.0
outer loop
vertex 29.1819588766622 11.2513455952269 0.0
vertex 30.0521821478087 13.1292620593286 0.0
vertex 29.579255433157 10.7335786422605 0.0
endloop
endfacet
facet normal 0.0 0.0 -1.0
outer loop
vertex 29.579255433157 10.7335786422605 0.0
vertex 30.0521821478087 13.1292620593286 0.0
vertex 29.8290064894185 10.1306262550168 0.0
endloop
endfacet
facet normal 0.0 0.0 -1.0
outer loop
vertex 29.8290064894185 10.1306262550168 0.0
vertex 30.0521821478087 13.1292620593286 0.0
vertex 29.9141919236959 9.48357864226051 0.0
endloop
endfacet
facet normal 0.0 0.0 -1.0
outer loop
vertex 29.1819588766622 7.71581168929414 0.0
vertex 31.4046803671826 7.48357864226051 0.0
vertex 28.8793068773558 7.48357864226051 0.0
endloop
endfacet
facet normal 0.0 0.0 -1.0
outer loop
vertex 31.4046803671826 7.48357864226051 0.0
vertex 29.1819588766622 7.71581168929414 0.0
vertex 29.579255433157 8.23357864226051 0.0
endloop
endfacet
facet normal 0.0 0.0 -1.0
outer loop
vertex 31.4046803671826 7.48357864226051 0.0
vertex 29.579255433157 8.23357864226051 0.0
vertex 29.8290064894185 8.8365310295042 0.0
endloop
endfacet
facet normal 0.0 0.0 -1.0
outer loop
vertex 31.4046803671826 7.48357864226051 0.0
vertex 29.8290064894185 8.8365310295042 0.0
vertex 29.9141919236959 9.48357864226051 0.0
endloop
endfacet
facet normal 0.0 0.0 -1.0
outer loop
vertex 31.4046803671826 7.48357864226051 0.0
vertex 29.9141919236959 9.48357864226051 0.0
vertex 30.0521821478087 13.1292620593286 0.0
endloop
endfacet
facet normal 0.0 0.0 -1.0
outer loop
vertex 31.4046803671826 7.48357864226051 0.0
vertex 30.0521821478087 13.1292620593286 0.0
vertex 30.9058671114162 12.3222762984857 0.0
endloop
endfacet
facet normal 0.0 0.0 -1.0
outer loop
vertex 31.4046803671826 7.48357864226051 0.0
vertex 30.9058671114162 12.3222762984857 0.0
vertex 31.5216001812466 11.3218379835407 0.0
endloop
endfacet
facet normal 0.0 0.0 -1.0
outer loop
vertex 31.4046803671826 7.48357864226051 0.0
vertex 31.5216001812466 11.3218379835407 0.0
vertex 31.6184138015104 7.87904805604349 0.0
endloop
endfacet
facet normal 0.0 0.0 -1.0
outer loop
vertex 31.6184138015104 7.87904805604349 0.0
vertex 31.5216001812466 11.3218379835407 0.0
vertex 31.6225089227078 10.9835786422605 0.0
endloop
endfacet
facet normal 0.0 0.0 -1.0
outer loop
vertex 31.6184138015104 7.87904805604349 0.0
vertex 31.6225089227078 10.9835786422605 0.0
vertex 31.8904414890889 9.02185380177783 0.0
endloop
endfacet
facet normal 0.0 0.0 -1.0
outer loop
vertex 31.8904414890889 9.02185380177783 0.0
vertex 31.6225089227078 10.9835786422605 0.0
vertex 52.4141919236958 15.9835786422605 0.0
endloop
endfacet
facet normal 0.0 0.0 -1.0
outer loop
vertex 31.8904414890889 9.02185380177783 0.0
vertex 52.4141919236958 15.9835786422605 0.0
vertex 50.4141919236958 13.4835786422605 0.0
endloop
endfacet
facet normal 0.0 0.0 -1.0
outer loop
vertex 50.4141919236958 13.4835786422605 0.0
vertex 52.4141919236958 15.9835786422605 0.0
vertex 50.4141919236958 6.95271164226051 0.0
endloop
endfacet
facet normal 0.0 0.0 -1.0
outer loop
vertex 50.4141919236958 6.95271164226051 0.0
vertex 52.4141919236958 15.9835786422605 0.0
vertex 51.9141919236958 2.98357864226051 0.0
endloop
endfacet
facet normal 0.0 0.0 -1.0
outer loop
vertex 51.9141919236958 2.98357864226051 0.0
vertex 49.4141919236959 7.48357864226051 0.0
vertex 50.4141919236958 6.95271164226051 0.0
endloop
endfacet
facet normal 0.0 0.0 -1.0
outer loop
vertex 2.41419192369586 15.9835786422605 0.0
vertex 4.41419192369586 13.4835786422605 0.0
vertex 2.91419192369586 2.98357864226051 0.0
endloop
endfacet
facet normal 0.0 0.0 -1.0
outer loop
vertex 4.41419192369586 13.4835786422605 0.0
vertex 2.41419192369586 15.9835786422605 0.0
vertex 23.2058749246839 10.9835786422605 0.0
endloop
endfacet
facet normal 0.0 0.0 -1.0
outer loop
vertex 4.41419192369586 13.4835786422605 0.0
vertex 23.2058749246839 10.9835786422605 0.0
vertex 22.9379423583028 9.02185380177783 0.0
endloop
endfacet
facet normal 0.0 0.0 -1.0
outer loop
vertex 22.9379423583028 9.02185380177783 0.0
vertex 23.2058749246839 10.9835786422605 0.0
vertex 23.2099700458814 7.87904805604349 0.0
endloop
endfacet
facet normal 0.0 0.0 -1.0
outer loop
vertex 23.2099700458814 7.87904805604349 0.0
vertex 23.2058749246839 10.9835786422605 0.0
vertex 23.3067836661451 11.3218379835407 0.0
endloop
endfacet
facet normal 0.0 0.0 -1.0
outer loop
vertex 23.2099700458814 7.87904805604349 0.0
vertex 23.3067836661451 11.3218379835407 0.0
vertex 23.4237034802092 7.48357864226051 0.0
endloop
endfacet
facet normal 0.0 0.0 -1.0
outer loop
vertex 23.4237034802092 7.48357864226051 0.0
vertex 23.3067836661451 11.3218379835407 0.0
vertex 23.9225167359755 12.3222762984857 0.0
endloop
endfacet
facet normal 0.0 0.0 -1.0
outer loop
vertex 23.4237034802092 7.48357864226051 0.0
vertex 23.9225167359755 12.3222762984857 0.0
vertex 24.9993773579732 8.8365310295042 0.0
endloop
endfacet
facet normal 0.0 0.0 -1.0
outer loop
vertex 23.4237034802092 7.48357864226051 0.0
vertex 24.9993773579732 8.8365310295042 0.0
vertex 25.2491284142348 8.23357864226051 0.0
endloop
endfacet
facet normal 0.0 0.0 -1.0
outer loop
vertex 23.4237034802092 7.48357864226051 0.0
vertex 25.2491284142348 8.23357864226051 0.0
vertex 25.6464249707295 7.71581168929414 0.0
endloop
endfacet
facet normal 0.0 0.0 -1.0
outer loop
vertex 23.4237034802092 7.48357864226051 0.0
vertex 25.6464249707295 7.71581168929414 0.0
vertex 25.9490769700359 7.48357864226051 0.0
endloop
endfacet
facet normal 0.0 0.0 -1.0
outer loop
vertex 24.9993773579732 8.8365310295042 0.0
vertex 23.9225167359755 12.3222762984857 0.0
vertex 24.9141919236959 9.48357864226051 0.0
endloop
endfacet
facet normal 0.0 0.0 -1.0
outer loop
vertex 24.9141919236959 9.48357864226051 0.0
vertex 23.9225167359755 12.3222762984857 0.0
vertex 24.776201699583 13.1292620593286 0.0
endloop
endfacet
facet normal 0.0 0.0 -1.0
outer loop
vertex 2.91419192369586 2.98357864226051 0.0
vertex 4.41419192369586 6.95271164226051 0.0
vertex 5.41419192369586 7.48357864226051 0.0
endloop
endfacet
facet normal 0.0 0.0 -1.0
outer loop
vertex 4.41419192369586 6.95271164226051 0.0
vertex 2.91419192369586 2.98357864226051 0.0
vertex 4.41419192369586 13.4835786422605 0.0
endloop
endfacet
endsolid PegBoardLock
